<svg width="9387" height="2779" viewBox="0 0 9387 2779" fill="none" xmlns="http://www.w3.org/2000/svg">
<g opacity="0.8">
<rect x="0.5" y="-0.5" width="169" height="88" rx="5.5" transform="matrix(-1 0 0 1 9386.79 2340)" fill="#2C70C1" fill-opacity="0.76" stroke="black"/>
<path d="M9304.5 2341V2247.5H9072.25M8760.5 2247.5H8840M8840 2247.5V2341M8840 2247.5H9072.25M9072.25 2247.5V2341" stroke="black"/>
<path d="M9231.43 2359L9230.6 2356.28H9226.44L9225.61 2359H9223L9227.03 2347.53H9229.99L9234.04 2359H9231.43ZM9229.19 2351.59C9229.14 2351.41 9229.07 2351.18 9228.98 2350.9C9228.9 2350.63 9228.81 2350.34 9228.73 2350.06C9228.64 2349.77 9228.57 2349.52 9228.52 2349.3C9228.47 2349.52 9228.39 2349.78 9228.3 2350.1C9228.21 2350.41 9228.13 2350.71 9228.04 2351C9227.97 2351.28 9227.91 2351.47 9227.86 2351.59L9227.05 2354.25H9230.02L9229.19 2351.59ZM9240.16 2350.1C9241.14 2350.1 9241.93 2350.49 9242.54 2351.26C9243.15 2352.01 9243.45 2353.13 9243.45 2354.62C9243.45 2355.61 9243.31 2356.45 9243.02 2357.13C9242.73 2357.8 9242.34 2358.31 9241.84 2358.65C9241.34 2358.99 9240.76 2359.16 9240.09 2359.16C9239.68 2359.16 9239.32 2359.11 9239.01 2359C9238.71 2358.89 9238.45 2358.75 9238.24 2358.58C9238.03 2358.41 9237.84 2358.23 9237.68 2358.04H9237.55C9237.59 2358.24 9237.63 2358.46 9237.65 2358.68C9237.67 2358.89 9237.68 2359.11 9237.68 2359.32V2362.84H9235.29V2350.26H9237.23L9237.57 2351.4H9237.68C9237.84 2351.17 9238.03 2350.95 9238.25 2350.76C9238.48 2350.56 9238.75 2350.4 9239.05 2350.28C9239.37 2350.16 9239.74 2350.1 9240.16 2350.1ZM9239.39 2352.01C9238.97 2352.01 9238.64 2352.09 9238.4 2352.26C9238.15 2352.43 9237.97 2352.7 9237.85 2353.05C9237.75 2353.39 9237.69 2353.82 9237.68 2354.34V2354.6C9237.68 2355.17 9237.73 2355.65 9237.84 2356.04C9237.95 2356.42 9238.13 2356.72 9238.38 2356.92C9238.64 2357.12 9238.99 2357.22 9239.42 2357.22C9239.79 2357.22 9240.08 2357.12 9240.32 2356.92C9240.55 2356.72 9240.73 2356.42 9240.85 2356.02C9240.96 2355.63 9241.02 2355.15 9241.02 2354.58C9241.02 2353.73 9240.89 2353.09 9240.62 2352.66C9240.37 2352.23 9239.96 2352.01 9239.39 2352.01ZM9251.15 2350.26H9253.77L9250.32 2354.46L9254.08 2359H9251.37L9247.8 2354.57V2359H9245.42V2350.26H9247.8V2354.5L9251.15 2350.26ZM9258.91 2350.09C9260.08 2350.09 9260.98 2350.34 9261.6 2350.86C9262.23 2351.36 9262.54 2352.13 9262.54 2353.18V2359H9260.88L9260.41 2357.82H9260.35C9260.1 2358.13 9259.85 2358.38 9259.58 2358.58C9259.33 2358.79 9259.03 2358.93 9258.69 2359.02C9258.36 2359.11 9257.94 2359.16 9257.45 2359.16C9256.94 2359.16 9256.48 2359.06 9256.06 2358.87C9255.66 2358.67 9255.34 2358.37 9255.1 2357.96C9254.87 2357.54 9254.75 2357.02 9254.75 2356.39C9254.75 2355.46 9255.08 2354.78 9255.73 2354.34C9256.38 2353.9 9257.35 2353.65 9258.65 2353.61L9260.17 2353.56V2353.18C9260.17 2352.72 9260.05 2352.38 9259.81 2352.17C9259.57 2351.95 9259.24 2351.85 9258.81 2351.85C9258.39 2351.85 9257.97 2351.91 9257.57 2352.04C9257.16 2352.16 9256.76 2352.31 9256.35 2352.49L9255.57 2350.87C9256.04 2350.63 9256.55 2350.43 9257.12 2350.3C9257.69 2350.16 9258.29 2350.09 9258.91 2350.09ZM9259.25 2354.98C9258.48 2355.01 9257.94 2355.14 9257.65 2355.4C9257.35 2355.66 9257.2 2355.99 9257.2 2356.41C9257.2 2356.77 9257.3 2357.03 9257.52 2357.19C9257.73 2357.34 9258.01 2357.42 9258.35 2357.42C9258.86 2357.42 9259.29 2357.27 9259.65 2356.97C9260 2356.66 9260.17 2356.23 9260.17 2355.67V2354.95L9259.25 2354.98ZM9272.84 2350.26V2357.26H9274.12V2362.14H9271.97V2359H9266.1V2362.14H9263.96V2357.26H9264.69C9265.08 2356.67 9265.4 2356 9265.67 2355.26C9265.94 2354.5 9266.15 2353.69 9266.31 2352.84C9266.47 2351.99 9266.59 2351.13 9266.66 2350.26H9272.84ZM9268.66 2352.06C9268.58 2352.7 9268.47 2353.32 9268.34 2353.93C9268.21 2354.53 9268.05 2355.1 9267.86 2355.66C9267.68 2356.21 9267.46 2356.74 9267.19 2357.26H9270.45V2352.06H9268.66ZM9277.91 2353.72C9277.91 2353.9 9277.9 2354.13 9277.88 2354.39C9277.87 2354.66 9277.85 2354.93 9277.83 2355.21C9277.82 2355.49 9277.8 2355.73 9277.78 2355.94C9277.76 2356.16 9277.75 2356.31 9277.74 2356.39L9281.77 2350.26H9284.63V2359H9282.33V2355.51C9282.33 2355.22 9282.34 2354.91 9282.36 2354.57C9282.38 2354.22 9282.4 2353.89 9282.42 2353.59C9282.46 2353.28 9282.48 2353.05 9282.49 2352.89L9278.47 2359H9275.61V2350.26H9277.91V2353.72ZM9295.49 2346.5C9295.44 2347.06 9295.28 2347.55 9295.03 2347.98C9294.77 2348.39 9294.37 2348.72 9293.83 2348.95C9293.28 2349.19 9292.55 2349.3 9291.64 2349.3C9290.7 2349.3 9289.96 2349.19 9289.43 2348.97C9288.9 2348.73 9288.53 2348.41 9288.31 2347.99C9288.08 2347.58 9287.95 2347.08 9287.91 2346.5H9290.04C9290.09 2347.09 9290.24 2347.48 9290.48 2347.67C9290.73 2347.86 9291.13 2347.96 9291.68 2347.96C9292.14 2347.96 9292.52 2347.86 9292.8 2347.66C9293.1 2347.44 9293.28 2347.06 9293.33 2346.5H9295.49ZM9289.43 2353.72C9289.43 2353.9 9289.42 2354.13 9289.4 2354.39C9289.38 2354.66 9289.37 2354.93 9289.35 2355.21C9289.34 2355.49 9289.32 2355.73 9289.3 2355.94C9289.28 2356.16 9289.26 2356.31 9289.25 2356.39L9293.28 2350.26H9296.15V2359H9293.84V2355.51C9293.84 2355.22 9293.85 2354.91 9293.88 2354.57C9293.9 2354.22 9293.92 2353.89 9293.94 2353.59C9293.97 2353.28 9293.99 2353.05 9294 2352.89L9289.99 2359H9287.12V2350.26H9289.43V2353.72ZM9231.02 2378H9224.44V2366.58H9231.02V2368.56H9226.86V2371.07H9230.73V2373.06H9226.86V2376H9231.02V2378ZM9239.59 2369.22C9240.6 2369.3 9241.45 2369.54 9242.15 2369.94C9242.84 2370.32 9243.36 2370.83 9243.71 2371.46C9244.08 2372.09 9244.26 2372.81 9244.26 2373.63C9244.26 2374.44 9244.08 2375.17 9243.73 2375.81C9243.39 2376.45 9242.87 2376.97 9242.18 2377.36C9241.49 2377.74 9240.63 2377.98 9239.59 2378.06V2381.84H9237.38V2378.06C9236.37 2377.97 9235.52 2377.73 9234.82 2377.34C9234.12 2376.95 9233.59 2376.44 9233.22 2375.81C9232.85 2375.17 9232.67 2374.44 9232.67 2373.63C9232.67 2372.8 9232.84 2372.06 9233.17 2371.42C9233.51 2370.78 9234.03 2370.27 9234.72 2369.89C9235.43 2369.5 9236.31 2369.28 9237.38 2369.22V2365.84H9239.59V2369.22ZM9237.38 2371.01C9236.92 2371.07 9236.52 2371.23 9236.18 2371.47C9235.84 2371.71 9235.57 2372.01 9235.39 2372.38C9235.21 2372.75 9235.12 2373.16 9235.12 2373.63C9235.12 2374.1 9235.21 2374.52 9235.38 2374.9C9235.56 2375.27 9235.81 2375.57 9236.15 2375.81C9236.49 2376.04 9236.9 2376.19 9237.38 2376.26V2371.01ZM9239.59 2376.26C9240.07 2376.19 9240.47 2376.04 9240.8 2375.81C9241.13 2375.57 9241.38 2375.27 9241.55 2374.9C9241.72 2374.52 9241.81 2374.1 9241.81 2373.63C9241.81 2373.16 9241.72 2372.75 9241.54 2372.38C9241.36 2372.01 9241.1 2371.71 9240.77 2371.47C9240.44 2371.24 9240.04 2371.09 9239.59 2371.04V2376.26ZM9248.54 2372.72C9248.54 2372.9 9248.53 2373.13 9248.5 2373.39C9248.49 2373.66 9248.48 2373.93 9248.46 2374.21C9248.45 2374.49 9248.43 2374.73 9248.41 2374.94C9248.39 2375.16 9248.37 2375.31 9248.36 2375.39L9252.39 2369.26H9255.26V2378H9252.95V2374.51C9252.95 2374.22 9252.96 2373.91 9252.98 2373.57C9253.01 2373.22 9253.03 2372.89 9253.05 2372.59C9253.08 2372.28 9253.1 2372.05 9253.11 2371.89L9249.1 2378H9246.23V2369.26H9248.54V2372.72ZM9268.76 2369.26V2378H9266.53V2373.71C9266.53 2373.29 9266.54 2372.87 9266.55 2372.46C9266.57 2372.06 9266.6 2371.69 9266.63 2371.34H9266.58L9264.16 2378H9262.37L9259.92 2371.33H9259.86C9259.9 2371.68 9259.93 2372.06 9259.94 2372.46C9259.96 2372.86 9259.97 2373.3 9259.97 2373.78V2378H9257.75V2369.26H9261.12L9263.3 2375.18L9265.51 2369.26H9268.76ZM9279.18 2373.62C9279.18 2374.34 9279.08 2374.99 9278.88 2375.55C9278.69 2376.12 9278.41 2376.6 9278.03 2376.99C9277.67 2377.38 9277.23 2377.67 9276.7 2377.87C9276.18 2378.06 9275.59 2378.16 9274.93 2378.16C9274.32 2378.16 9273.75 2378.06 9273.23 2377.87C9272.72 2377.67 9272.28 2377.38 9271.9 2376.99C9271.53 2376.6 9271.24 2376.12 9271.02 2375.55C9270.82 2374.99 9270.72 2374.34 9270.72 2373.62C9270.72 2372.65 9270.89 2371.83 9271.23 2371.17C9271.57 2370.5 9272.06 2369.98 9272.7 2369.63C9273.34 2369.28 9274.1 2369.1 9274.98 2369.1C9275.8 2369.1 9276.52 2369.28 9277.15 2369.63C9277.78 2369.98 9278.28 2370.5 9278.64 2371.17C9279 2371.83 9279.18 2372.65 9279.18 2373.62ZM9273.15 2373.62C9273.15 2374.19 9273.21 2374.68 9273.33 2375.07C9273.46 2375.46 9273.65 2375.75 9273.92 2375.95C9274.19 2376.14 9274.53 2376.24 9274.96 2376.24C9275.39 2376.24 9275.73 2376.14 9275.98 2375.95C9276.25 2375.75 9276.44 2375.46 9276.56 2375.07C9276.69 2374.68 9276.75 2374.19 9276.75 2373.62C9276.75 2373.04 9276.69 2372.56 9276.56 2372.18C9276.44 2371.79 9276.25 2371.5 9275.98 2371.31C9275.72 2371.12 9275.37 2371.02 9274.94 2371.02C9274.31 2371.02 9273.86 2371.24 9273.57 2371.68C9273.29 2372.11 9273.15 2372.75 9273.15 2373.62ZM9288.9 2371.55C9288.9 2372.02 9288.75 2372.42 9288.45 2372.75C9288.16 2373.08 9287.73 2373.3 9287.15 2373.39V2373.46C9287.76 2373.53 9288.25 2373.74 9288.61 2374.08C9288.98 2374.42 9289.17 2374.86 9289.17 2375.39C9289.17 2375.77 9289.1 2376.11 9288.95 2376.43C9288.81 2376.75 9288.58 2377.03 9288.27 2377.26C9287.96 2377.5 9287.56 2377.68 9287.07 2377.81C9286.59 2377.94 9286.01 2378 9285.31 2378H9281.15V2369.26H9285.31C9286 2369.26 9286.6 2369.34 9287.14 2369.49C9287.68 2369.63 9288.11 2369.86 9288.42 2370.19C9288.74 2370.52 9288.9 2370.98 9288.9 2371.55ZM9286.71 2375.26C9286.71 2374.92 9286.57 2374.68 9286.31 2374.53C9286.04 2374.37 9285.64 2374.29 9285.11 2374.29H9283.54V2376.35H9285.15C9285.6 2376.35 9285.97 2376.27 9286.26 2376.11C9286.56 2375.94 9286.71 2375.66 9286.71 2375.26ZM9286.48 2371.74C9286.48 2371.47 9286.38 2371.26 9286.16 2371.14C9285.95 2371.01 9285.63 2370.94 9285.22 2370.94H9283.54V2372.67H9284.95C9285.45 2372.67 9285.83 2372.6 9286.08 2372.46C9286.35 2372.31 9286.48 2372.07 9286.48 2371.74ZM9293.52 2372.72C9293.52 2372.9 9293.51 2373.13 9293.49 2373.39C9293.48 2373.66 9293.46 2373.93 9293.44 2374.21C9293.43 2374.49 9293.41 2374.73 9293.39 2374.94C9293.37 2375.16 9293.36 2375.31 9293.34 2375.39L9297.38 2369.26H9300.24V2378H9297.94V2374.51C9297.94 2374.22 9297.95 2373.91 9297.97 2373.57C9297.99 2373.22 9298.01 2372.89 9298.03 2372.59C9298.06 2372.28 9298.09 2372.05 9298.1 2371.89L9294.08 2378H9291.22V2369.26H9293.52V2372.72ZM9304.83 2372.46C9304.83 2372.84 9304.92 2373.12 9305.1 2373.31C9305.29 2373.5 9305.55 2373.6 9305.88 2373.6C9306.34 2373.6 9306.77 2373.55 9307.16 2373.46C9307.56 2373.35 9307.95 2373.21 9308.35 2373.04V2369.26H9310.73V2378H9308.35V2374.53C9307.98 2374.73 9307.55 2374.92 9307.07 2375.09C9306.59 2375.25 9306.04 2375.33 9305.44 2375.33C9304.53 2375.33 9303.8 2375.09 9303.26 2374.62C9302.72 2374.15 9302.44 2373.45 9302.44 2372.51V2369.26H9304.83V2372.46ZM9228.84 2397H9226.42V2387.59H9223.32V2385.58H9231.94V2387.59H9228.84V2397ZM9235.82 2388.09C9236.99 2388.09 9237.89 2388.34 9238.5 2388.86C9239.13 2389.36 9239.45 2390.13 9239.45 2391.18V2397H9237.78L9237.32 2395.82H9237.26C9237.01 2396.13 9236.76 2396.38 9236.49 2396.58C9236.23 2396.79 9235.93 2396.93 9235.59 2397.02C9235.26 2397.11 9234.85 2397.16 9234.36 2397.16C9233.85 2397.16 9233.38 2397.06 9232.97 2396.87C9232.56 2396.67 9232.24 2396.37 9232.01 2395.96C9231.77 2395.54 9231.66 2395.02 9231.66 2394.39C9231.66 2393.46 9231.98 2392.78 9232.63 2392.34C9233.28 2391.9 9234.26 2391.65 9235.56 2391.61L9237.08 2391.56V2391.18C9237.08 2390.72 9236.96 2390.38 9236.71 2390.17C9236.48 2389.95 9236.15 2389.85 9235.72 2389.85C9235.29 2389.85 9234.88 2389.91 9234.47 2390.04C9234.07 2390.16 9233.66 2390.31 9233.26 2390.49L9232.47 2388.87C9232.94 2388.63 9233.46 2388.43 9234.02 2388.3C9234.6 2388.16 9235.2 2388.09 9235.82 2388.09ZM9236.15 2392.98C9235.38 2393.01 9234.85 2393.14 9234.55 2393.4C9234.25 2393.66 9234.1 2393.99 9234.1 2394.41C9234.1 2394.77 9234.21 2395.03 9234.42 2395.19C9234.64 2395.34 9234.92 2395.42 9235.26 2395.42C9235.77 2395.42 9236.2 2395.27 9236.55 2394.97C9236.9 2394.66 9237.08 2394.23 9237.08 2393.67V2392.95L9236.15 2392.98ZM9246.75 2388.1C9247.73 2388.1 9248.53 2388.49 9249.14 2389.26C9249.74 2390.01 9250.05 2391.13 9250.05 2392.62C9250.05 2393.61 9249.9 2394.45 9249.62 2395.13C9249.33 2395.8 9248.93 2396.31 9248.43 2396.65C9247.93 2396.99 9247.35 2397.16 9246.69 2397.16C9246.27 2397.16 9245.91 2397.11 9245.6 2397C9245.3 2396.89 9245.05 2396.75 9244.83 2396.58C9244.62 2396.41 9244.43 2396.23 9244.27 2396.04H9244.14C9244.19 2396.24 9244.22 2396.46 9244.24 2396.68C9244.26 2396.89 9244.27 2397.11 9244.27 2397.32V2400.84H9241.89V2388.26H9243.82L9244.16 2389.4H9244.27C9244.43 2389.17 9244.62 2388.95 9244.85 2388.76C9245.07 2388.56 9245.34 2388.4 9245.65 2388.28C9245.97 2388.16 9246.34 2388.1 9246.75 2388.1ZM9245.98 2390.01C9245.57 2390.01 9245.24 2390.09 9244.99 2390.26C9244.75 2390.43 9244.57 2390.7 9244.45 2391.05C9244.34 2391.39 9244.28 2391.82 9244.27 2392.34V2392.6C9244.27 2393.17 9244.33 2393.65 9244.43 2394.04C9244.54 2394.42 9244.72 2394.72 9244.98 2394.92C9245.23 2395.12 9245.58 2395.22 9246.02 2395.22C9246.38 2395.22 9246.68 2395.12 9246.91 2394.92C9247.15 2394.72 9247.32 2394.42 9247.44 2394.02C9247.56 2393.63 9247.62 2393.15 9247.62 2392.58C9247.62 2391.73 9247.48 2391.09 9247.22 2390.66C9246.96 2390.23 9246.55 2390.01 9245.98 2390.01ZM9255.6 2388.09C9256.77 2388.09 9257.67 2388.34 9258.29 2388.86C9258.91 2389.36 9259.23 2390.13 9259.23 2391.18V2397H9257.57L9257.1 2395.82H9257.04C9256.79 2396.13 9256.54 2396.38 9256.27 2396.58C9256.01 2396.79 9255.71 2396.93 9255.37 2397.02C9255.04 2397.11 9254.63 2397.16 9254.14 2397.16C9253.63 2397.16 9253.17 2397.06 9252.75 2396.87C9252.34 2396.67 9252.02 2396.37 9251.79 2395.96C9251.55 2395.54 9251.44 2395.02 9251.44 2394.39C9251.44 2393.46 9251.76 2392.78 9252.41 2392.34C9253.06 2391.9 9254.04 2391.65 9255.34 2391.61L9256.86 2391.56V2391.18C9256.86 2390.72 9256.74 2390.38 9256.49 2390.17C9256.26 2389.95 9255.93 2389.85 9255.5 2389.85C9255.07 2389.85 9254.66 2389.91 9254.25 2390.04C9253.85 2390.16 9253.44 2390.31 9253.04 2390.49L9252.25 2388.87C9252.72 2388.63 9253.24 2388.43 9253.81 2388.3C9254.38 2388.16 9254.98 2388.09 9255.6 2388.09ZM9255.93 2392.98C9255.17 2393.01 9254.63 2393.14 9254.33 2393.4C9254.03 2393.66 9253.89 2393.99 9253.89 2394.41C9253.89 2394.77 9253.99 2395.03 9254.21 2395.19C9254.42 2395.34 9254.7 2395.42 9255.04 2395.42C9255.55 2395.42 9255.98 2395.27 9256.33 2394.97C9256.69 2394.66 9256.86 2394.23 9256.86 2393.67V2392.95L9255.93 2392.98ZM9265.22 2397.16C9264.36 2397.16 9263.62 2397.01 9263.01 2396.7C9262.41 2396.38 9261.94 2395.89 9261.62 2395.22C9261.3 2394.56 9261.14 2393.71 9261.14 2392.68C9261.14 2391.61 9261.32 2390.74 9261.69 2390.07C9262.05 2389.4 9262.55 2388.9 9263.19 2388.58C9263.84 2388.26 9264.59 2388.1 9265.43 2388.1C9266.03 2388.1 9266.54 2388.16 9266.98 2388.28C9267.43 2388.4 9267.82 2388.54 9268.15 2388.7L9267.45 2390.54C9267.07 2390.39 9266.72 2390.26 9266.39 2390.17C9266.07 2390.07 9265.75 2390.02 9265.43 2390.02C9265.01 2390.02 9264.67 2390.13 9264.39 2390.33C9264.11 2390.52 9263.9 2390.81 9263.77 2391.21C9263.64 2391.59 9263.57 2392.08 9263.57 2392.66C9263.57 2393.24 9263.64 2393.72 9263.78 2394.1C9263.93 2394.48 9264.14 2394.76 9264.42 2394.95C9264.7 2395.13 9265.04 2395.22 9265.43 2395.22C9265.93 2395.22 9266.37 2395.16 9266.76 2395.03C9267.14 2394.89 9267.52 2394.71 9267.88 2394.47V2396.5C9267.52 2396.74 9267.13 2396.9 9266.73 2397C9266.33 2397.11 9265.83 2397.16 9265.22 2397.16ZM9273.49 2388.1C9274.3 2388.1 9274.99 2388.26 9275.57 2388.57C9276.16 2388.88 9276.61 2389.33 9276.93 2389.91C9277.25 2390.5 9277.41 2391.22 9277.41 2392.07V2393.22H9271.78C9271.8 2393.9 9272 2394.42 9272.37 2394.81C9272.75 2395.19 9273.28 2395.38 9273.95 2395.38C9274.52 2395.38 9275.03 2395.33 9275.49 2395.22C9275.95 2395.11 9276.42 2394.93 9276.91 2394.7V2396.54C9276.49 2396.75 9276.03 2396.9 9275.55 2397C9275.08 2397.11 9274.51 2397.16 9273.84 2397.16C9272.97 2397.16 9272.19 2397 9271.52 2396.68C9270.85 2396.35 9270.32 2395.85 9269.94 2395.19C9269.55 2394.53 9269.36 2393.7 9269.36 2392.7C9269.36 2391.67 9269.53 2390.82 9269.87 2390.15C9270.22 2389.47 9270.71 2388.96 9271.33 2388.62C9271.95 2388.27 9272.67 2388.1 9273.49 2388.1ZM9273.5 2389.8C9273.05 2389.8 9272.66 2389.95 9272.35 2390.25C9272.05 2390.55 9271.88 2391.01 9271.82 2391.64H9275.17C9275.17 2391.29 9275.1 2390.97 9274.98 2390.7C9274.86 2390.42 9274.68 2390.2 9274.43 2390.04C9274.19 2389.88 9273.88 2389.8 9273.5 2389.8ZM9281.73 2388.26V2391.62H9285.05V2388.26H9287.44V2397H9285.05V2393.4H9281.73V2397H9279.34V2388.26H9281.73ZM9295.66 2388.26H9298.29L9294.83 2392.46L9298.59 2397H9295.89L9292.32 2392.57V2397H9289.94V2388.26H9292.32V2392.5L9295.66 2388.26ZM9307.47 2392.62C9307.47 2393.34 9307.36 2393.99 9307.16 2394.55C9306.97 2395.12 9306.69 2395.6 9306.31 2395.99C9305.95 2396.38 9305.51 2396.67 9304.99 2396.87C9304.46 2397.06 9303.87 2397.16 9303.21 2397.16C9302.6 2397.16 9302.04 2397.06 9301.51 2396.87C9301 2396.67 9300.56 2396.38 9300.19 2395.99C9299.81 2395.6 9299.52 2395.12 9299.31 2394.55C9299.1 2393.99 9299 2393.34 9299 2392.62C9299 2391.65 9299.17 2390.83 9299.51 2390.17C9299.85 2389.5 9300.35 2388.98 9300.99 2388.63C9301.63 2388.28 9302.38 2388.1 9303.26 2388.1C9304.08 2388.1 9304.8 2388.28 9305.43 2388.63C9306.06 2388.98 9306.56 2389.5 9306.92 2390.17C9307.28 2390.83 9307.47 2391.65 9307.47 2392.62ZM9301.43 2392.62C9301.43 2393.19 9301.49 2393.68 9301.61 2394.07C9301.74 2394.46 9301.93 2394.75 9302.2 2394.95C9302.47 2395.14 9302.81 2395.24 9303.24 2395.24C9303.67 2395.24 9304.01 2395.14 9304.27 2394.95C9304.53 2394.75 9304.72 2394.46 9304.84 2394.07C9304.97 2393.68 9305.03 2393.19 9305.03 2392.62C9305.03 2392.04 9304.97 2391.56 9304.84 2391.18C9304.72 2390.79 9304.53 2390.5 9304.27 2390.31C9304 2390.12 9303.65 2390.02 9303.23 2390.02C9302.6 2390.02 9302.14 2390.24 9301.85 2390.68C9301.57 2391.11 9301.43 2391.75 9301.43 2392.62Z" fill="#381B00"/>
<rect x="0.5" y="-0.5" width="169" height="88" rx="5.5" transform="matrix(-1 0 0 1 9154.79 2340)" fill="#2C70C1" fill-opacity="0.76" stroke="black"/>
<path d="M8995.99 2347.58C8997.01 2347.58 8997.85 2347.67 8998.54 2347.86C8999.23 2348.05 8999.75 2348.35 9000.09 2348.78C9000.44 2349.19 9000.62 2349.76 9000.62 2350.47C9000.62 2350.9 9000.55 2351.29 9000.41 2351.64C9000.27 2351.99 9000.07 2352.28 8999.8 2352.5C8999.54 2352.73 8999.23 2352.87 8998.86 2352.94V2353.02C8999.24 2353.09 8999.59 2353.22 8999.9 2353.42C9000.21 2353.61 9000.45 2353.89 9000.63 2354.25C9000.81 2354.61 9000.9 2355.09 9000.9 2355.69C9000.9 2356.38 9000.73 2356.98 9000.39 2357.48C9000.06 2357.97 8999.58 2358.35 8998.95 2358.62C8998.32 2358.87 8997.58 2359 8996.71 2359H8992.44V2347.58H8995.99ZM8996.26 2352.1C8996.97 2352.1 8997.45 2351.99 8997.72 2351.77C8998 2351.54 8998.14 2351.22 8998.14 2350.79C8998.14 2350.35 8997.98 2350.04 8997.66 2349.85C8997.34 2349.66 8996.83 2349.56 8996.14 2349.56H8994.86V2352.1H8996.26ZM8994.86 2354.02V2357H8996.44C8997.17 2357 8997.67 2356.86 8997.96 2356.58C8998.25 2356.3 8998.39 2355.92 8998.39 2355.45C8998.39 2355.16 8998.33 2354.91 8998.2 2354.7C8998.08 2354.48 8997.87 2354.32 8997.58 2354.2C8997.28 2354.08 8996.87 2354.02 8996.36 2354.02H8994.86ZM9010.82 2359H9008.44V2352.06H9006.25C9006.14 2353.34 9006.01 2354.43 9005.85 2355.34C9005.7 2356.23 9005.5 2356.96 9005.27 2357.53C9005.05 2358.09 9004.76 2358.51 9004.41 2358.78C9004.05 2359.03 9003.62 2359.16 9003.11 2359.16C9002.83 2359.16 9002.58 2359.14 9002.36 2359.1C9002.13 2359.05 9001.93 2358.99 9001.75 2358.9V2357C9001.87 2357.04 9001.99 2357.08 9002.12 2357.11C9002.25 2357.14 9002.38 2357.16 9002.52 2357.16C9002.67 2357.16 9002.81 2357.1 9002.93 2356.98C9003.07 2356.87 9003.2 2356.66 9003.32 2356.36C9003.45 2356.06 9003.56 2355.65 9003.67 2355.13C9003.78 2354.61 9003.87 2353.95 9003.96 2353.16C9004.05 2352.36 9004.14 2351.39 9004.21 2350.26H9010.82V2359ZM9016.89 2350.09C9018.07 2350.09 9018.96 2350.34 9019.58 2350.86C9020.21 2351.36 9020.53 2352.13 9020.53 2353.18V2359H9018.86L9018.4 2357.82H9018.33C9018.09 2358.13 9017.83 2358.38 9017.57 2358.58C9017.31 2358.79 9017.01 2358.93 9016.67 2359.02C9016.34 2359.11 9015.93 2359.16 9015.44 2359.16C9014.93 2359.16 9014.46 2359.06 9014.05 2358.87C9013.64 2358.67 9013.32 2358.37 9013.09 2357.96C9012.85 2357.54 9012.73 2357.02 9012.73 2356.39C9012.73 2355.46 9013.06 2354.78 9013.71 2354.34C9014.36 2353.9 9015.34 2353.65 9016.64 2353.61L9018.16 2353.56V2353.18C9018.16 2352.72 9018.04 2352.38 9017.79 2352.17C9017.56 2351.95 9017.23 2351.85 9016.8 2351.85C9016.37 2351.85 9015.96 2351.91 9015.55 2352.04C9015.15 2352.16 9014.74 2352.31 9014.33 2352.49L9013.55 2350.87C9014.02 2350.63 9014.54 2350.43 9015.1 2350.3C9015.68 2350.16 9016.28 2350.09 9016.89 2350.09ZM9017.23 2354.98C9016.46 2355.01 9015.93 2355.14 9015.63 2355.4C9015.33 2355.66 9015.18 2355.99 9015.18 2356.41C9015.18 2356.77 9015.29 2357.03 9015.5 2357.19C9015.72 2357.34 9015.99 2357.42 9016.33 2357.42C9016.85 2357.42 9017.28 2357.27 9017.63 2356.97C9017.98 2356.66 9018.16 2356.23 9018.16 2355.67V2354.95L9017.23 2354.98ZM9030.82 2350.26V2357.26H9032.1V2362.14H9029.96V2359H9024.09V2362.14H9021.94V2357.26H9022.68C9023.06 2356.67 9023.39 2356 9023.65 2355.26C9023.92 2354.5 9024.13 2353.69 9024.29 2352.84C9024.45 2351.99 9024.57 2351.13 9024.65 2350.26H9030.82ZM9026.65 2352.06C9026.56 2352.7 9026.45 2353.32 9026.33 2353.93C9026.2 2354.53 9026.04 2355.1 9025.85 2355.66C9025.67 2356.21 9025.44 2356.74 9025.17 2357.26H9028.44V2352.06H9026.65ZM9035.9 2353.72C9035.9 2353.9 9035.89 2354.13 9035.86 2354.39C9035.85 2354.66 9035.84 2354.93 9035.82 2355.21C9035.81 2355.49 9035.79 2355.73 9035.77 2355.94C9035.75 2356.16 9035.73 2356.31 9035.72 2356.39L9039.75 2350.26H9042.62V2359H9040.31V2355.51C9040.31 2355.22 9040.32 2354.91 9040.34 2354.57C9040.37 2354.22 9040.39 2353.89 9040.41 2353.59C9040.44 2353.28 9040.46 2353.05 9040.47 2352.89L9036.46 2359H9033.59V2350.26H9035.9V2353.72ZM9056.12 2350.26V2359H9053.89V2354.71C9053.89 2354.29 9053.9 2353.87 9053.91 2353.46C9053.93 2353.06 9053.96 2352.69 9053.99 2352.34H9053.94L9051.52 2359H9049.73L9047.28 2352.33H9047.22C9047.26 2352.68 9047.29 2353.06 9047.3 2353.46C9047.32 2353.86 9047.33 2354.3 9047.33 2354.78V2359H9045.11V2350.26H9048.48L9050.66 2356.18L9052.87 2350.26H9056.12ZM9060.91 2353.72C9060.91 2353.9 9060.9 2354.13 9060.88 2354.39C9060.87 2354.66 9060.85 2354.93 9060.83 2355.21C9060.82 2355.49 9060.8 2355.73 9060.78 2355.94C9060.76 2356.16 9060.75 2356.31 9060.74 2356.39L9064.77 2350.26H9067.63V2359H9065.33V2355.51C9065.33 2355.22 9065.34 2354.91 9065.36 2354.57C9065.38 2354.22 9065.4 2353.89 9065.42 2353.59C9065.46 2353.28 9065.48 2353.05 9065.49 2352.89L9061.47 2359H9058.61V2350.26H9060.91V2353.72ZM9074.99 2350.1C9075.97 2350.1 9076.76 2350.49 9077.37 2351.26C9077.98 2352.01 9078.28 2353.13 9078.28 2354.62C9078.28 2355.61 9078.14 2356.45 9077.85 2357.13C9077.56 2357.8 9077.17 2358.31 9076.67 2358.65C9076.17 2358.99 9075.58 2359.16 9074.92 2359.16C9074.51 2359.16 9074.14 2359.11 9073.84 2359C9073.54 2358.89 9073.28 2358.75 9073.07 2358.58C9072.85 2358.41 9072.67 2358.23 9072.51 2358.04H9072.38C9072.42 2358.24 9072.45 2358.46 9072.48 2358.68C9072.5 2358.89 9072.51 2359.11 9072.51 2359.32V2362.84H9070.12V2350.26H9072.06L9072.4 2351.4H9072.51C9072.67 2351.17 9072.86 2350.95 9073.08 2350.76C9073.31 2350.56 9073.57 2350.4 9073.88 2350.28C9074.2 2350.16 9074.57 2350.1 9074.99 2350.1ZM9074.22 2352.01C9073.8 2352.01 9073.47 2352.09 9073.23 2352.26C9072.98 2352.43 9072.8 2352.7 9072.68 2353.05C9072.58 2353.39 9072.52 2353.82 9072.51 2354.34V2354.6C9072.51 2355.17 9072.56 2355.65 9072.67 2356.04C9072.77 2356.42 9072.96 2356.72 9073.21 2356.92C9073.47 2357.12 9073.81 2357.22 9074.25 2357.22C9074.61 2357.22 9074.91 2357.12 9075.15 2356.92C9075.38 2356.72 9075.56 2356.42 9075.68 2356.02C9075.79 2355.63 9075.85 2355.15 9075.85 2354.58C9075.85 2353.73 9075.72 2353.09 9075.45 2352.66C9075.2 2352.23 9074.78 2352.01 9074.22 2352.01ZM8999.02 2378H8992.44V2366.58H8999.02V2368.56H8994.86V2371.07H8998.73V2373.06H8994.86V2376H8999.02V2378ZM9007.59 2369.22C9008.6 2369.3 9009.45 2369.54 9010.15 2369.94C9010.84 2370.32 9011.36 2370.83 9011.71 2371.46C9012.08 2372.09 9012.26 2372.81 9012.26 2373.63C9012.26 2374.44 9012.08 2375.17 9011.73 2375.81C9011.39 2376.45 9010.87 2376.97 9010.18 2377.36C9009.49 2377.74 9008.63 2377.98 9007.59 2378.06V2381.84H9005.38V2378.06C9004.37 2377.97 9003.52 2377.73 9002.82 2377.34C9002.12 2376.95 9001.59 2376.44 9001.22 2375.81C9000.85 2375.17 9000.67 2374.44 9000.67 2373.63C9000.67 2372.8 9000.84 2372.06 9001.17 2371.42C9001.51 2370.78 9002.03 2370.27 9002.72 2369.89C9003.43 2369.5 9004.31 2369.28 9005.38 2369.22V2365.84H9007.59V2369.22ZM9005.38 2371.01C9004.92 2371.07 9004.52 2371.23 9004.18 2371.47C9003.84 2371.71 9003.57 2372.01 9003.39 2372.38C9003.21 2372.75 9003.12 2373.16 9003.12 2373.63C9003.12 2374.1 9003.21 2374.52 9003.38 2374.9C9003.56 2375.27 9003.81 2375.57 9004.15 2375.81C9004.49 2376.04 9004.9 2376.19 9005.38 2376.26V2371.01ZM9007.59 2376.26C9008.07 2376.19 9008.47 2376.04 9008.8 2375.81C9009.13 2375.57 9009.38 2375.27 9009.55 2374.9C9009.72 2374.52 9009.81 2374.1 9009.81 2373.63C9009.81 2373.16 9009.72 2372.75 9009.54 2372.38C9009.36 2372.01 9009.1 2371.71 9008.77 2371.47C9008.44 2371.24 9008.04 2371.09 9007.59 2371.04V2376.26ZM9016.54 2372.72C9016.54 2372.9 9016.53 2373.13 9016.5 2373.39C9016.49 2373.66 9016.48 2373.93 9016.46 2374.21C9016.45 2374.49 9016.43 2374.73 9016.41 2374.94C9016.39 2375.16 9016.37 2375.31 9016.36 2375.39L9020.39 2369.26H9023.26V2378H9020.95V2374.51C9020.95 2374.22 9020.96 2373.91 9020.98 2373.57C9021.01 2373.22 9021.03 2372.89 9021.05 2372.59C9021.08 2372.28 9021.1 2372.05 9021.11 2371.89L9017.1 2378H9014.23V2369.26H9016.54V2372.72ZM9036.76 2369.26V2378H9034.53V2373.71C9034.53 2373.29 9034.54 2372.87 9034.55 2372.46C9034.57 2372.06 9034.6 2371.69 9034.63 2371.34H9034.58L9032.16 2378H9030.37L9027.92 2371.33H9027.86C9027.9 2371.68 9027.93 2372.06 9027.94 2372.46C9027.96 2372.86 9027.97 2373.3 9027.97 2373.78V2378H9025.75V2369.26H9029.12L9031.3 2375.18L9033.51 2369.26H9036.76ZM9047.18 2373.62C9047.18 2374.34 9047.08 2374.99 9046.88 2375.55C9046.69 2376.12 9046.41 2376.6 9046.03 2376.99C9045.67 2377.38 9045.23 2377.67 9044.7 2377.87C9044.18 2378.06 9043.59 2378.16 9042.93 2378.16C9042.32 2378.16 9041.75 2378.06 9041.23 2377.87C9040.72 2377.67 9040.28 2377.38 9039.9 2376.99C9039.53 2376.6 9039.24 2376.12 9039.02 2375.55C9038.82 2374.99 9038.72 2374.34 9038.72 2373.62C9038.72 2372.65 9038.89 2371.83 9039.23 2371.17C9039.57 2370.5 9040.06 2369.98 9040.7 2369.63C9041.34 2369.28 9042.1 2369.1 9042.98 2369.1C9043.8 2369.1 9044.52 2369.28 9045.15 2369.63C9045.78 2369.98 9046.28 2370.5 9046.64 2371.17C9047 2371.83 9047.18 2372.65 9047.18 2373.62ZM9041.15 2373.62C9041.15 2374.19 9041.21 2374.68 9041.33 2375.07C9041.46 2375.46 9041.65 2375.75 9041.92 2375.95C9042.19 2376.14 9042.53 2376.24 9042.96 2376.24C9043.39 2376.24 9043.73 2376.14 9043.98 2375.95C9044.25 2375.75 9044.44 2375.46 9044.56 2375.07C9044.69 2374.68 9044.75 2374.19 9044.75 2373.62C9044.75 2373.04 9044.69 2372.56 9044.56 2372.18C9044.44 2371.79 9044.25 2371.5 9043.98 2371.31C9043.72 2371.12 9043.37 2371.02 9042.94 2371.02C9042.31 2371.02 9041.86 2371.24 9041.57 2371.68C9041.29 2372.11 9041.15 2372.75 9041.15 2373.62ZM9056.9 2371.55C9056.9 2372.02 9056.75 2372.42 9056.45 2372.75C9056.16 2373.08 9055.73 2373.3 9055.15 2373.39V2373.46C9055.76 2373.53 9056.25 2373.74 9056.61 2374.08C9056.98 2374.42 9057.17 2374.86 9057.17 2375.39C9057.17 2375.77 9057.1 2376.11 9056.95 2376.43C9056.81 2376.75 9056.58 2377.03 9056.27 2377.26C9055.96 2377.5 9055.56 2377.68 9055.07 2377.81C9054.59 2377.94 9054.01 2378 9053.31 2378H9049.15V2369.26H9053.31C9054 2369.26 9054.6 2369.34 9055.14 2369.49C9055.68 2369.63 9056.11 2369.86 9056.42 2370.19C9056.74 2370.52 9056.9 2370.98 9056.9 2371.55ZM9054.71 2375.26C9054.71 2374.92 9054.57 2374.68 9054.31 2374.53C9054.04 2374.37 9053.64 2374.29 9053.11 2374.29H9051.54V2376.35H9053.15C9053.6 2376.35 9053.97 2376.27 9054.26 2376.11C9054.56 2375.94 9054.71 2375.66 9054.71 2375.26ZM9054.48 2371.74C9054.48 2371.47 9054.38 2371.26 9054.16 2371.14C9053.95 2371.01 9053.63 2370.94 9053.22 2370.94H9051.54V2372.67H9052.95C9053.45 2372.67 9053.83 2372.6 9054.08 2372.46C9054.35 2372.31 9054.48 2372.07 9054.48 2371.74ZM9061.52 2372.72C9061.52 2372.9 9061.51 2373.13 9061.49 2373.39C9061.48 2373.66 9061.46 2373.93 9061.44 2374.21C9061.43 2374.49 9061.41 2374.73 9061.39 2374.94C9061.37 2375.16 9061.36 2375.31 9061.34 2375.39L9065.38 2369.26H9068.24V2378H9065.94V2374.51C9065.94 2374.22 9065.95 2373.91 9065.97 2373.57C9065.99 2373.22 9066.01 2372.89 9066.03 2372.59C9066.06 2372.28 9066.09 2372.05 9066.1 2371.89L9062.08 2378H9059.22V2369.26H9061.52V2372.72ZM9072.83 2372.46C9072.83 2372.84 9072.92 2373.12 9073.1 2373.31C9073.29 2373.5 9073.55 2373.6 9073.88 2373.6C9074.34 2373.6 9074.77 2373.55 9075.16 2373.46C9075.56 2373.35 9075.95 2373.21 9076.35 2373.04V2369.26H9078.73V2378H9076.35V2374.53C9075.98 2374.73 9075.55 2374.92 9075.07 2375.09C9074.59 2375.25 9074.04 2375.33 9073.44 2375.33C9072.53 2375.33 9071.8 2375.09 9071.26 2374.62C9070.72 2374.15 9070.44 2373.45 9070.44 2372.51V2369.26H9072.83V2372.46ZM8996.84 2397H8994.42V2387.59H8991.32V2385.58H8999.94V2387.59H8996.84V2397ZM9003.82 2388.09C9004.99 2388.09 9005.89 2388.34 9006.5 2388.86C9007.13 2389.36 9007.45 2390.13 9007.45 2391.18V2397H9005.78L9005.32 2395.82H9005.26C9005.01 2396.13 9004.76 2396.38 9004.49 2396.58C9004.23 2396.79 9003.93 2396.93 9003.59 2397.02C9003.26 2397.11 9002.85 2397.16 9002.36 2397.16C9001.85 2397.16 9001.38 2397.06 9000.97 2396.87C9000.56 2396.67 9000.24 2396.37 9000.01 2395.96C8999.77 2395.54 8999.66 2395.02 8999.66 2394.39C8999.66 2393.46 8999.98 2392.78 9000.63 2392.34C9001.28 2391.9 9002.26 2391.65 9003.56 2391.61L9005.08 2391.56V2391.18C9005.08 2390.72 9004.96 2390.38 9004.71 2390.17C9004.48 2389.95 9004.15 2389.85 9003.72 2389.85C9003.29 2389.85 9002.88 2389.91 9002.47 2390.04C9002.07 2390.16 9001.66 2390.31 9001.26 2390.49L9000.47 2388.87C9000.94 2388.63 9001.46 2388.43 9002.02 2388.3C9002.6 2388.16 9003.2 2388.09 9003.82 2388.09ZM9004.15 2392.98C9003.38 2393.01 9002.85 2393.14 9002.55 2393.4C9002.25 2393.66 9002.1 2393.99 9002.1 2394.41C9002.1 2394.77 9002.21 2395.03 9002.42 2395.19C9002.64 2395.34 9002.92 2395.42 9003.26 2395.42C9003.77 2395.42 9004.2 2395.27 9004.55 2394.97C9004.9 2394.66 9005.08 2394.23 9005.08 2393.67V2392.95L9004.15 2392.98ZM9014.75 2388.1C9015.73 2388.1 9016.53 2388.49 9017.14 2389.26C9017.74 2390.01 9018.05 2391.13 9018.05 2392.62C9018.05 2393.61 9017.9 2394.45 9017.62 2395.13C9017.33 2395.8 9016.93 2396.31 9016.43 2396.65C9015.93 2396.99 9015.35 2397.16 9014.69 2397.16C9014.27 2397.16 9013.91 2397.11 9013.6 2397C9013.3 2396.89 9013.05 2396.75 9012.83 2396.58C9012.62 2396.41 9012.43 2396.23 9012.27 2396.04H9012.14C9012.19 2396.24 9012.22 2396.46 9012.24 2396.68C9012.26 2396.89 9012.27 2397.11 9012.27 2397.32V2400.84H9009.89V2388.26H9011.82L9012.16 2389.4H9012.27C9012.43 2389.17 9012.62 2388.95 9012.85 2388.76C9013.07 2388.56 9013.34 2388.4 9013.65 2388.28C9013.97 2388.16 9014.34 2388.1 9014.75 2388.1ZM9013.98 2390.01C9013.57 2390.01 9013.24 2390.09 9012.99 2390.26C9012.75 2390.43 9012.57 2390.7 9012.45 2391.05C9012.34 2391.39 9012.28 2391.82 9012.27 2392.34V2392.6C9012.27 2393.17 9012.33 2393.65 9012.43 2394.04C9012.54 2394.42 9012.72 2394.72 9012.98 2394.92C9013.23 2395.12 9013.58 2395.22 9014.02 2395.22C9014.38 2395.22 9014.68 2395.12 9014.91 2394.92C9015.15 2394.72 9015.32 2394.42 9015.44 2394.02C9015.56 2393.63 9015.62 2393.15 9015.62 2392.58C9015.62 2391.73 9015.48 2391.09 9015.22 2390.66C9014.96 2390.23 9014.55 2390.01 9013.98 2390.01ZM9023.6 2388.09C9024.77 2388.09 9025.67 2388.34 9026.29 2388.86C9026.91 2389.36 9027.23 2390.13 9027.23 2391.18V2397H9025.57L9025.1 2395.82H9025.04C9024.79 2396.13 9024.54 2396.38 9024.27 2396.58C9024.01 2396.79 9023.71 2396.93 9023.37 2397.02C9023.04 2397.11 9022.63 2397.16 9022.14 2397.16C9021.63 2397.16 9021.17 2397.06 9020.75 2396.87C9020.34 2396.67 9020.02 2396.37 9019.79 2395.96C9019.55 2395.54 9019.44 2395.02 9019.44 2394.39C9019.44 2393.46 9019.76 2392.78 9020.41 2392.34C9021.06 2391.9 9022.04 2391.65 9023.34 2391.61L9024.86 2391.56V2391.18C9024.86 2390.72 9024.74 2390.38 9024.49 2390.17C9024.26 2389.95 9023.93 2389.85 9023.5 2389.85C9023.07 2389.85 9022.66 2389.91 9022.25 2390.04C9021.85 2390.16 9021.44 2390.31 9021.04 2390.49L9020.25 2388.87C9020.72 2388.63 9021.24 2388.43 9021.81 2388.3C9022.38 2388.16 9022.98 2388.09 9023.6 2388.09ZM9023.93 2392.98C9023.17 2393.01 9022.63 2393.14 9022.33 2393.4C9022.03 2393.66 9021.89 2393.99 9021.89 2394.41C9021.89 2394.77 9021.99 2395.03 9022.21 2395.19C9022.42 2395.34 9022.7 2395.42 9023.04 2395.42C9023.55 2395.42 9023.98 2395.27 9024.33 2394.97C9024.69 2394.66 9024.86 2394.23 9024.86 2393.67V2392.95L9023.93 2392.98ZM9033.22 2397.16C9032.36 2397.16 9031.62 2397.01 9031.01 2396.7C9030.41 2396.38 9029.94 2395.89 9029.62 2395.22C9029.3 2394.56 9029.14 2393.71 9029.14 2392.68C9029.14 2391.61 9029.32 2390.74 9029.69 2390.07C9030.05 2389.4 9030.55 2388.9 9031.19 2388.58C9031.84 2388.26 9032.59 2388.1 9033.43 2388.1C9034.03 2388.1 9034.54 2388.16 9034.98 2388.28C9035.43 2388.4 9035.82 2388.54 9036.15 2388.7L9035.45 2390.54C9035.07 2390.39 9034.72 2390.26 9034.39 2390.17C9034.07 2390.07 9033.75 2390.02 9033.43 2390.02C9033.01 2390.02 9032.67 2390.13 9032.39 2390.33C9032.11 2390.52 9031.9 2390.81 9031.77 2391.21C9031.64 2391.59 9031.57 2392.08 9031.57 2392.66C9031.57 2393.24 9031.64 2393.72 9031.78 2394.1C9031.93 2394.48 9032.14 2394.76 9032.42 2394.95C9032.7 2395.13 9033.04 2395.22 9033.43 2395.22C9033.93 2395.22 9034.37 2395.16 9034.76 2395.03C9035.14 2394.89 9035.52 2394.71 9035.88 2394.47V2396.5C9035.52 2396.74 9035.13 2396.9 9034.73 2397C9034.33 2397.11 9033.83 2397.16 9033.22 2397.16ZM9041.49 2388.1C9042.3 2388.1 9042.99 2388.26 9043.57 2388.57C9044.16 2388.88 9044.61 2389.33 9044.93 2389.91C9045.25 2390.5 9045.41 2391.22 9045.41 2392.07V2393.22H9039.78C9039.8 2393.9 9040 2394.42 9040.37 2394.81C9040.75 2395.19 9041.28 2395.38 9041.95 2395.38C9042.52 2395.38 9043.03 2395.33 9043.49 2395.22C9043.95 2395.11 9044.42 2394.93 9044.91 2394.7V2396.54C9044.49 2396.75 9044.03 2396.9 9043.55 2397C9043.08 2397.11 9042.51 2397.16 9041.84 2397.16C9040.97 2397.16 9040.19 2397 9039.52 2396.68C9038.85 2396.35 9038.32 2395.85 9037.94 2395.19C9037.55 2394.53 9037.36 2393.7 9037.36 2392.7C9037.36 2391.67 9037.53 2390.82 9037.87 2390.15C9038.22 2389.47 9038.71 2388.96 9039.33 2388.62C9039.95 2388.27 9040.67 2388.1 9041.49 2388.1ZM9041.5 2389.8C9041.05 2389.8 9040.66 2389.95 9040.35 2390.25C9040.05 2390.55 9039.88 2391.01 9039.82 2391.64H9043.17C9043.17 2391.29 9043.1 2390.97 9042.98 2390.7C9042.86 2390.42 9042.68 2390.2 9042.43 2390.04C9042.19 2389.88 9041.88 2389.8 9041.5 2389.8ZM9049.73 2388.26V2391.62H9053.05V2388.26H9055.44V2397H9053.05V2393.4H9049.73V2397H9047.34V2388.26H9049.73ZM9063.66 2388.26H9066.29L9062.83 2392.46L9066.59 2397H9063.89L9060.32 2392.57V2397H9057.94V2388.26H9060.32V2392.5L9063.66 2388.26ZM9075.47 2392.62C9075.47 2393.34 9075.36 2393.99 9075.16 2394.55C9074.97 2395.12 9074.69 2395.6 9074.31 2395.99C9073.95 2396.38 9073.51 2396.67 9072.99 2396.87C9072.46 2397.06 9071.87 2397.16 9071.21 2397.16C9070.6 2397.16 9070.04 2397.06 9069.51 2396.87C9069 2396.67 9068.56 2396.38 9068.19 2395.99C9067.81 2395.6 9067.52 2395.12 9067.31 2394.55C9067.1 2393.99 9067 2393.34 9067 2392.62C9067 2391.65 9067.17 2390.83 9067.51 2390.17C9067.85 2389.5 9068.35 2388.98 9068.99 2388.63C9069.63 2388.28 9070.38 2388.1 9071.26 2388.1C9072.08 2388.1 9072.8 2388.28 9073.43 2388.63C9074.06 2388.98 9074.56 2389.5 9074.92 2390.17C9075.28 2390.83 9075.47 2391.65 9075.47 2392.62ZM9069.43 2392.62C9069.43 2393.19 9069.49 2393.68 9069.61 2394.07C9069.74 2394.46 9069.93 2394.75 9070.2 2394.95C9070.47 2395.14 9070.81 2395.24 9071.24 2395.24C9071.67 2395.24 9072.01 2395.14 9072.27 2394.95C9072.53 2394.75 9072.72 2394.46 9072.84 2394.07C9072.97 2393.68 9073.03 2393.19 9073.03 2392.62C9073.03 2392.04 9072.97 2391.56 9072.84 2391.18C9072.72 2390.79 9072.53 2390.5 9072.27 2390.31C9072 2390.12 9071.65 2390.02 9071.23 2390.02C9070.6 2390.02 9070.14 2390.24 9069.85 2390.68C9069.57 2391.11 9069.43 2391.75 9069.43 2392.62Z" fill="#381B00"/>
<rect x="0.5" y="-0.5" width="169" height="88" rx="5.5" transform="matrix(-1 0 0 1 8488 2023)" fill="#B2CA6F" fill-opacity="0.75" stroke="black"/>
<path d="M8403 2023V1929.5H8628.5" stroke="black"/>
<path d="M8389.02 2067H8382.44V2055.58H8389.02V2057.56H8384.86V2060.07H8388.73V2062.06H8384.86V2065H8389.02V2067ZM8397.23 2058.26V2060.06H8393.59V2067H8391.2V2058.26H8397.23ZM8406.62 2062.62C8406.62 2063.34 8406.52 2063.99 8406.32 2064.55C8406.13 2065.12 8405.84 2065.6 8405.47 2065.99C8405.11 2066.38 8404.66 2066.67 8404.14 2066.87C8403.62 2067.06 8403.03 2067.16 8402.37 2067.16C8401.76 2067.16 8401.19 2067.06 8400.67 2066.87C8400.16 2066.67 8399.71 2066.38 8399.34 2065.99C8398.97 2065.6 8398.67 2065.12 8398.46 2064.55C8398.26 2063.99 8398.16 2063.34 8398.16 2062.62C8398.16 2061.65 8398.33 2060.83 8398.67 2060.17C8399.01 2059.5 8399.5 2058.98 8400.14 2058.63C8400.78 2058.28 8401.54 2058.1 8402.41 2058.1C8403.23 2058.1 8403.96 2058.28 8404.59 2058.63C8405.22 2058.98 8405.71 2059.5 8406.08 2060.17C8406.44 2060.83 8406.62 2061.65 8406.62 2062.62ZM8400.59 2062.62C8400.59 2063.19 8400.65 2063.68 8400.77 2064.07C8400.89 2064.46 8401.09 2064.75 8401.36 2064.95C8401.62 2065.14 8401.97 2065.24 8402.4 2065.24C8402.82 2065.24 8403.17 2065.14 8403.42 2064.95C8403.69 2064.75 8403.88 2064.46 8404 2064.07C8404.13 2063.68 8404.19 2063.19 8404.19 2062.62C8404.19 2062.04 8404.13 2061.56 8404 2061.18C8403.88 2060.79 8403.69 2060.5 8403.42 2060.31C8403.15 2060.12 8402.81 2060.02 8402.38 2060.02C8401.75 2060.02 8401.29 2060.24 8401.01 2060.68C8400.73 2061.11 8400.59 2061.75 8400.59 2062.62ZM8413.46 2058.1C8414.44 2058.1 8415.23 2058.49 8415.84 2059.26C8416.45 2060.01 8416.75 2061.13 8416.75 2062.62C8416.75 2063.61 8416.61 2064.45 8416.32 2065.13C8416.03 2065.8 8415.64 2066.31 8415.14 2066.65C8414.63 2066.99 8414.05 2067.16 8413.39 2067.16C8412.98 2067.16 8412.61 2067.11 8412.3 2067C8412.01 2066.89 8411.75 2066.75 8411.54 2066.58C8411.32 2066.41 8411.14 2066.23 8410.98 2066.04H8410.85C8410.89 2066.24 8410.92 2066.46 8410.94 2066.68C8410.97 2066.89 8410.98 2067.11 8410.98 2067.32V2070.84H8408.59V2058.26H8410.53L8410.86 2059.4H8410.98C8411.14 2059.17 8411.33 2058.95 8411.55 2058.76C8411.78 2058.56 8412.04 2058.4 8412.35 2058.28C8412.67 2058.16 8413.04 2058.1 8413.46 2058.1ZM8412.69 2060.01C8412.27 2060.01 8411.94 2060.09 8411.7 2060.26C8411.45 2060.43 8411.27 2060.7 8411.15 2061.05C8411.05 2061.39 8410.99 2061.82 8410.98 2062.34V2062.6C8410.98 2063.17 8411.03 2063.65 8411.14 2064.04C8411.24 2064.42 8411.42 2064.72 8411.68 2064.92C8411.94 2065.12 8412.28 2065.22 8412.72 2065.22C8413.08 2065.22 8413.38 2065.12 8413.62 2064.92C8413.85 2064.72 8414.03 2064.42 8414.14 2064.02C8414.26 2063.63 8414.32 2063.15 8414.32 2062.58C8414.32 2061.73 8414.19 2061.09 8413.92 2060.66C8413.66 2060.23 8413.25 2060.01 8412.69 2060.01Z" fill="#381B00"/>
<rect x="0.5" y="-0.5" width="169" height="88" rx="5.5" transform="matrix(-1 0 0 1 8922.79 2340)" fill="#2C70C1" fill-opacity="0.43" stroke="black"/>
<path d="M8838 2427L8837 2650.5" stroke="black"/>
<path d="M8765.43 2359L8764.6 2356.28H8760.44L8759.61 2359H8757L8761.03 2347.53H8763.99L8768.04 2359H8765.43ZM8763.19 2351.59C8763.14 2351.41 8763.07 2351.18 8762.98 2350.9C8762.9 2350.63 8762.81 2350.34 8762.73 2350.06C8762.64 2349.77 8762.57 2349.52 8762.52 2349.3C8762.47 2349.52 8762.39 2349.78 8762.3 2350.1C8762.21 2350.41 8762.13 2350.71 8762.04 2351C8761.97 2351.28 8761.91 2351.47 8761.86 2351.59L8761.05 2354.25H8764.02L8763.19 2351.59ZM8777.12 2359H8774.73V2352.06H8772.54C8772.44 2353.34 8772.3 2354.43 8772.14 2355.34C8771.99 2356.23 8771.8 2356.96 8771.57 2357.53C8771.34 2358.09 8771.05 2358.51 8770.7 2358.78C8770.35 2359.03 8769.92 2359.16 8769.41 2359.16C8769.13 2359.16 8768.88 2359.14 8768.65 2359.1C8768.43 2359.05 8768.23 2358.99 8768.05 2358.9V2357C8768.16 2357.04 8768.29 2357.08 8768.41 2357.11C8768.54 2357.14 8768.68 2357.16 8768.81 2357.16C8768.96 2357.16 8769.1 2357.1 8769.23 2356.98C8769.37 2356.87 8769.5 2356.66 8769.61 2356.36C8769.74 2356.06 8769.86 2355.65 8769.97 2355.13C8770.07 2354.61 8770.17 2353.95 8770.25 2353.16C8770.35 2352.36 8770.44 2351.39 8770.51 2350.26H8777.12V2359ZM8783.21 2350.1C8784.02 2350.1 8784.71 2350.26 8785.29 2350.57C8785.87 2350.88 8786.33 2351.33 8786.65 2351.91C8786.97 2352.5 8787.13 2353.22 8787.13 2354.07V2355.22H8781.5C8781.52 2355.9 8781.71 2356.42 8782.09 2356.81C8782.47 2357.19 8783 2357.38 8783.67 2357.38C8784.24 2357.38 8784.75 2357.33 8785.21 2357.22C8785.67 2357.11 8786.14 2356.93 8786.63 2356.7V2358.54C8786.2 2358.75 8785.75 2358.9 8785.27 2359C8784.8 2359.11 8784.23 2359.16 8783.56 2359.16C8782.68 2359.16 8781.91 2359 8781.24 2358.68C8780.57 2358.35 8780.04 2357.85 8779.66 2357.19C8779.27 2356.53 8779.08 2355.7 8779.08 2354.7C8779.08 2353.67 8779.25 2352.82 8779.59 2352.15C8779.94 2351.47 8780.43 2350.96 8781.05 2350.62C8781.67 2350.27 8782.39 2350.1 8783.21 2350.1ZM8783.22 2351.8C8782.76 2351.8 8782.38 2351.95 8782.07 2352.25C8781.77 2352.55 8781.6 2353.01 8781.54 2353.64H8784.89C8784.89 2353.29 8784.82 2352.97 8784.7 2352.7C8784.58 2352.42 8784.4 2352.2 8784.15 2352.04C8783.91 2351.88 8783.6 2351.8 8783.22 2351.8ZM8794.79 2350.26H8797.41L8793.96 2354.46L8797.72 2359H8795.01L8791.44 2354.57V2359H8789.06V2350.26H8791.44V2354.5L8794.79 2350.26ZM8802.21 2359.16C8801.34 2359.16 8800.61 2359.01 8800 2358.7C8799.39 2358.38 8798.93 2357.89 8798.61 2357.22C8798.29 2356.56 8798.13 2355.71 8798.13 2354.68C8798.13 2353.61 8798.31 2352.74 8798.67 2352.07C8799.03 2351.4 8799.53 2350.9 8800.17 2350.58C8800.82 2350.26 8801.57 2350.1 8802.41 2350.1C8803.01 2350.1 8803.53 2350.16 8803.97 2350.28C8804.41 2350.4 8804.8 2350.54 8805.13 2350.7L8804.43 2352.54C8804.06 2352.39 8803.7 2352.26 8803.37 2352.17C8803.05 2352.07 8802.73 2352.02 8802.41 2352.02C8802 2352.02 8801.65 2352.13 8801.37 2352.33C8801.1 2352.52 8800.89 2352.81 8800.75 2353.21C8800.62 2353.59 8800.56 2354.08 8800.56 2354.66C8800.56 2355.24 8800.63 2355.72 8800.77 2356.1C8800.92 2356.48 8801.13 2356.76 8801.41 2356.95C8801.68 2357.13 8802.02 2357.22 8802.41 2357.22C8802.92 2357.22 8803.36 2357.16 8803.74 2357.03C8804.13 2356.89 8804.5 2356.71 8804.86 2356.47V2358.5C8804.5 2358.74 8804.12 2358.9 8803.71 2359C8803.32 2359.11 8802.81 2359.16 8802.21 2359.16ZM8810.46 2350.09C8811.63 2350.09 8812.53 2350.34 8813.15 2350.86C8813.77 2351.36 8814.09 2352.13 8814.09 2353.18V2359H8812.43L8811.96 2357.82H8811.9C8811.65 2358.13 8811.4 2358.38 8811.13 2358.58C8810.87 2358.79 8810.57 2358.93 8810.23 2359.02C8809.9 2359.11 8809.49 2359.16 8809 2359.16C8808.49 2359.16 8808.03 2359.06 8807.61 2358.87C8807.2 2358.67 8806.88 2358.37 8806.65 2357.96C8806.41 2357.54 8806.3 2357.02 8806.3 2356.39C8806.3 2355.46 8806.62 2354.78 8807.27 2354.34C8807.92 2353.9 8808.9 2353.65 8810.2 2353.61L8811.72 2353.56V2353.18C8811.72 2352.72 8811.6 2352.38 8811.35 2352.17C8811.12 2351.95 8810.79 2351.85 8810.36 2351.85C8809.93 2351.85 8809.52 2351.91 8809.11 2352.04C8808.71 2352.16 8808.3 2352.31 8807.9 2352.49L8807.11 2350.87C8807.58 2350.63 8808.1 2350.43 8808.67 2350.3C8809.24 2350.16 8809.84 2350.09 8810.46 2350.09ZM8810.79 2354.98C8810.03 2355.01 8809.49 2355.14 8809.19 2355.4C8808.89 2355.66 8808.75 2355.99 8808.75 2356.41C8808.75 2356.77 8808.85 2357.03 8809.07 2357.19C8809.28 2357.34 8809.56 2357.42 8809.9 2357.42C8810.41 2357.42 8810.84 2357.27 8811.19 2356.97C8811.55 2356.66 8811.72 2356.23 8811.72 2355.67V2354.95L8810.79 2354.98ZM8818.91 2350.26V2353.62H8822.24V2350.26H8824.63V2359H8822.24V2355.4H8818.91V2359H8816.53V2350.26H8818.91ZM8834.98 2350.26V2357.26H8836.26V2362.14H8834.12V2359H8828.24V2362.14H8826.1V2357.26H8826.84C8827.22 2356.67 8827.54 2356 8827.81 2355.26C8828.08 2354.5 8828.29 2353.69 8828.45 2352.84C8828.61 2351.99 8828.73 2351.13 8828.8 2350.26H8834.98ZM8830.8 2352.06C8830.72 2352.7 8830.61 2353.32 8830.48 2353.93C8830.36 2354.53 8830.2 2355.1 8830 2355.66C8829.82 2356.21 8829.6 2356.74 8829.33 2357.26H8832.6V2352.06H8830.8ZM8842.61 2350.1C8843.59 2350.1 8844.39 2350.49 8845 2351.26C8845.6 2352.01 8845.91 2353.13 8845.91 2354.62C8845.91 2355.61 8845.76 2356.45 8845.48 2357.13C8845.19 2357.8 8844.79 2358.31 8844.29 2358.65C8843.79 2358.99 8843.21 2359.16 8842.55 2359.16C8842.13 2359.16 8841.77 2359.11 8841.46 2359C8841.16 2358.89 8840.91 2358.75 8840.69 2358.58C8840.48 2358.41 8840.29 2358.23 8840.13 2358.04H8840C8840.05 2358.24 8840.08 2358.46 8840.1 2358.68C8840.12 2358.89 8840.13 2359.11 8840.13 2359.32V2362.84H8837.75V2350.26H8839.68L8840.02 2351.4H8840.13C8840.29 2351.17 8840.48 2350.95 8840.71 2350.76C8840.93 2350.56 8841.2 2350.4 8841.51 2350.28C8841.83 2350.16 8842.2 2350.1 8842.61 2350.1ZM8841.84 2352.01C8841.43 2352.01 8841.1 2352.09 8840.85 2352.26C8840.61 2352.43 8840.43 2352.7 8840.31 2353.05C8840.2 2353.39 8840.14 2353.82 8840.13 2354.34V2354.6C8840.13 2355.17 8840.19 2355.65 8840.29 2356.04C8840.4 2356.42 8840.58 2356.72 8840.84 2356.92C8841.09 2357.12 8841.44 2357.22 8841.88 2357.22C8842.24 2357.22 8842.54 2357.12 8842.77 2356.92C8843.01 2356.72 8843.18 2356.42 8843.3 2356.02C8843.42 2355.63 8843.48 2355.15 8843.48 2354.58C8843.48 2353.73 8843.34 2353.09 8843.08 2352.66C8842.82 2352.23 8842.41 2352.01 8841.84 2352.01ZM8851.46 2350.09C8852.63 2350.09 8853.53 2350.34 8854.15 2350.86C8854.77 2351.36 8855.09 2352.13 8855.09 2353.18V2359H8853.43L8852.96 2357.82H8852.9C8852.65 2358.13 8852.4 2358.38 8852.13 2358.58C8851.87 2358.79 8851.57 2358.93 8851.23 2359.02C8850.9 2359.11 8850.49 2359.16 8850 2359.16C8849.49 2359.16 8849.03 2359.06 8848.61 2358.87C8848.2 2358.67 8847.88 2358.37 8847.65 2357.96C8847.41 2357.54 8847.3 2357.02 8847.3 2356.39C8847.3 2355.46 8847.62 2354.78 8848.27 2354.34C8848.92 2353.9 8849.9 2353.65 8851.2 2353.61L8852.72 2353.56V2353.18C8852.72 2352.72 8852.6 2352.38 8852.35 2352.17C8852.12 2351.95 8851.79 2351.85 8851.36 2351.85C8850.93 2351.85 8850.52 2351.91 8850.11 2352.04C8849.71 2352.16 8849.3 2352.31 8848.9 2352.49L8848.11 2350.87C8848.58 2350.63 8849.1 2350.43 8849.67 2350.3C8850.24 2350.16 8850.84 2350.09 8851.46 2350.09ZM8851.79 2354.98C8851.03 2355.01 8850.49 2355.14 8850.19 2355.4C8849.89 2355.66 8849.75 2355.99 8849.75 2356.41C8849.75 2356.77 8849.85 2357.03 8850.07 2357.19C8850.28 2357.34 8850.56 2357.42 8850.9 2357.42C8851.41 2357.42 8851.84 2357.27 8852.19 2356.97C8852.55 2356.66 8852.72 2356.23 8852.72 2355.67V2354.95L8851.79 2354.98ZM8765.02 2378H8758.44V2366.58H8765.02V2368.56H8760.86V2371.07H8764.73V2373.06H8760.86V2376H8765.02V2378ZM8773.59 2369.22C8774.6 2369.3 8775.45 2369.54 8776.15 2369.94C8776.84 2370.32 8777.36 2370.83 8777.71 2371.46C8778.08 2372.09 8778.26 2372.81 8778.26 2373.63C8778.26 2374.44 8778.08 2375.17 8777.73 2375.81C8777.39 2376.45 8776.87 2376.97 8776.18 2377.36C8775.49 2377.74 8774.63 2377.98 8773.59 2378.06V2381.84H8771.38V2378.06C8770.37 2377.97 8769.52 2377.73 8768.82 2377.34C8768.12 2376.95 8767.59 2376.44 8767.22 2375.81C8766.85 2375.17 8766.67 2374.44 8766.67 2373.63C8766.67 2372.8 8766.84 2372.06 8767.17 2371.42C8767.51 2370.78 8768.03 2370.27 8768.72 2369.89C8769.43 2369.5 8770.31 2369.28 8771.38 2369.22V2365.84H8773.59V2369.22ZM8771.38 2371.01C8770.92 2371.07 8770.52 2371.23 8770.18 2371.47C8769.84 2371.71 8769.57 2372.01 8769.39 2372.38C8769.21 2372.75 8769.12 2373.16 8769.12 2373.63C8769.12 2374.1 8769.21 2374.52 8769.38 2374.9C8769.56 2375.27 8769.81 2375.57 8770.15 2375.81C8770.49 2376.04 8770.9 2376.19 8771.38 2376.26V2371.01ZM8773.59 2376.26C8774.07 2376.19 8774.47 2376.04 8774.8 2375.81C8775.13 2375.57 8775.38 2375.27 8775.55 2374.9C8775.72 2374.52 8775.81 2374.1 8775.81 2373.63C8775.81 2373.16 8775.72 2372.75 8775.54 2372.38C8775.36 2372.01 8775.1 2371.71 8774.77 2371.47C8774.44 2371.24 8774.04 2371.09 8773.59 2371.04V2376.26ZM8782.54 2372.72C8782.54 2372.9 8782.53 2373.13 8782.5 2373.39C8782.49 2373.66 8782.48 2373.93 8782.46 2374.21C8782.45 2374.49 8782.43 2374.73 8782.41 2374.94C8782.39 2375.16 8782.37 2375.31 8782.36 2375.39L8786.39 2369.26H8789.26V2378H8786.95V2374.51C8786.95 2374.22 8786.96 2373.91 8786.98 2373.57C8787.01 2373.22 8787.03 2372.89 8787.05 2372.59C8787.08 2372.28 8787.1 2372.05 8787.11 2371.89L8783.1 2378H8780.23V2369.26H8782.54V2372.72ZM8802.76 2369.26V2378H8800.53V2373.71C8800.53 2373.29 8800.54 2372.87 8800.55 2372.46C8800.57 2372.06 8800.6 2371.69 8800.63 2371.34H8800.58L8798.16 2378H8796.37L8793.92 2371.33H8793.86C8793.9 2371.68 8793.93 2372.06 8793.94 2372.46C8793.96 2372.86 8793.97 2373.3 8793.97 2373.78V2378H8791.75V2369.26H8795.12L8797.3 2375.18L8799.51 2369.26H8802.76ZM8813.18 2373.62C8813.18 2374.34 8813.08 2374.99 8812.88 2375.55C8812.69 2376.12 8812.41 2376.6 8812.03 2376.99C8811.67 2377.38 8811.23 2377.67 8810.7 2377.87C8810.18 2378.06 8809.59 2378.16 8808.93 2378.16C8808.32 2378.16 8807.75 2378.06 8807.23 2377.87C8806.72 2377.67 8806.28 2377.38 8805.9 2376.99C8805.53 2376.6 8805.24 2376.12 8805.02 2375.55C8804.82 2374.99 8804.72 2374.34 8804.72 2373.62C8804.72 2372.65 8804.89 2371.83 8805.23 2371.17C8805.57 2370.5 8806.06 2369.98 8806.7 2369.63C8807.34 2369.28 8808.1 2369.1 8808.98 2369.1C8809.8 2369.1 8810.52 2369.28 8811.15 2369.63C8811.78 2369.98 8812.28 2370.5 8812.64 2371.17C8813 2371.83 8813.18 2372.65 8813.18 2373.62ZM8807.15 2373.62C8807.15 2374.19 8807.21 2374.68 8807.33 2375.07C8807.46 2375.46 8807.65 2375.75 8807.92 2375.95C8808.19 2376.14 8808.53 2376.24 8808.96 2376.24C8809.39 2376.24 8809.73 2376.14 8809.98 2375.95C8810.25 2375.75 8810.44 2375.46 8810.56 2375.07C8810.69 2374.68 8810.75 2374.19 8810.75 2373.62C8810.75 2373.04 8810.69 2372.56 8810.56 2372.18C8810.44 2371.79 8810.25 2371.5 8809.98 2371.31C8809.72 2371.12 8809.37 2371.02 8808.94 2371.02C8808.31 2371.02 8807.86 2371.24 8807.57 2371.68C8807.29 2372.11 8807.15 2372.75 8807.15 2373.62ZM8822.9 2371.55C8822.9 2372.02 8822.75 2372.42 8822.45 2372.75C8822.16 2373.08 8821.73 2373.3 8821.15 2373.39V2373.46C8821.76 2373.53 8822.25 2373.74 8822.61 2374.08C8822.98 2374.42 8823.17 2374.86 8823.17 2375.39C8823.17 2375.77 8823.1 2376.11 8822.95 2376.43C8822.81 2376.75 8822.58 2377.03 8822.27 2377.26C8821.96 2377.5 8821.56 2377.68 8821.07 2377.81C8820.59 2377.94 8820.01 2378 8819.31 2378H8815.15V2369.26H8819.31C8820 2369.26 8820.6 2369.34 8821.14 2369.49C8821.68 2369.63 8822.11 2369.86 8822.42 2370.19C8822.74 2370.52 8822.9 2370.98 8822.9 2371.55ZM8820.71 2375.26C8820.71 2374.92 8820.57 2374.68 8820.31 2374.53C8820.04 2374.37 8819.64 2374.29 8819.11 2374.29H8817.54V2376.35H8819.15C8819.6 2376.35 8819.97 2376.27 8820.26 2376.11C8820.56 2375.94 8820.71 2375.66 8820.71 2375.26ZM8820.48 2371.74C8820.48 2371.47 8820.38 2371.26 8820.16 2371.14C8819.95 2371.01 8819.63 2370.94 8819.22 2370.94H8817.54V2372.67H8818.95C8819.45 2372.67 8819.83 2372.6 8820.08 2372.46C8820.35 2372.31 8820.48 2372.07 8820.48 2371.74ZM8827.6 2369.26V2372.62H8830.93V2369.26H8833.31V2378H8830.93V2374.4H8827.6V2378H8825.22V2369.26H8827.6ZM8839.39 2369.09C8840.57 2369.09 8841.46 2369.34 8842.08 2369.86C8842.71 2370.36 8843.03 2371.13 8843.03 2372.18V2378H8841.36L8840.9 2376.82H8840.83C8840.59 2377.13 8840.33 2377.38 8840.07 2377.58C8839.81 2377.79 8839.51 2377.93 8839.17 2378.02C8838.84 2378.11 8838.43 2378.16 8837.94 2378.16C8837.43 2378.16 8836.96 2378.06 8836.55 2377.87C8836.14 2377.67 8835.82 2377.37 8835.59 2376.96C8835.35 2376.54 8835.23 2376.02 8835.23 2375.39C8835.23 2374.46 8835.56 2373.78 8836.21 2373.34C8836.86 2372.9 8837.84 2372.65 8839.14 2372.61L8840.66 2372.56V2372.18C8840.66 2371.72 8840.54 2371.38 8840.29 2371.17C8840.06 2370.95 8839.73 2370.85 8839.3 2370.85C8838.87 2370.85 8838.46 2370.91 8838.05 2371.04C8837.65 2371.16 8837.24 2371.31 8836.83 2371.49L8836.05 2369.87C8836.52 2369.63 8837.04 2369.43 8837.6 2369.3C8838.18 2369.16 8838.78 2369.09 8839.39 2369.09ZM8839.73 2373.98C8838.96 2374.01 8838.43 2374.14 8838.13 2374.4C8837.83 2374.66 8837.68 2374.99 8837.68 2375.41C8837.68 2375.77 8837.79 2376.03 8838 2376.19C8838.22 2376.34 8838.49 2376.42 8838.83 2376.42C8839.35 2376.42 8839.78 2376.27 8840.13 2375.97C8840.48 2375.66 8840.66 2375.23 8840.66 2374.67V2373.95L8839.73 2373.98ZM8762.84 2397H8760.42V2387.59H8757.32V2385.58H8765.94V2387.59H8762.84V2397ZM8769.82 2388.09C8770.99 2388.09 8771.89 2388.34 8772.5 2388.86C8773.13 2389.36 8773.45 2390.13 8773.45 2391.18V2397H8771.78L8771.32 2395.82H8771.26C8771.01 2396.13 8770.76 2396.38 8770.49 2396.58C8770.23 2396.79 8769.93 2396.93 8769.59 2397.02C8769.26 2397.11 8768.85 2397.16 8768.36 2397.16C8767.85 2397.16 8767.38 2397.06 8766.97 2396.87C8766.56 2396.67 8766.24 2396.37 8766.01 2395.96C8765.77 2395.54 8765.66 2395.02 8765.66 2394.39C8765.66 2393.46 8765.98 2392.78 8766.63 2392.34C8767.28 2391.9 8768.26 2391.65 8769.56 2391.61L8771.08 2391.56V2391.18C8771.08 2390.72 8770.96 2390.38 8770.71 2390.17C8770.48 2389.95 8770.15 2389.85 8769.72 2389.85C8769.29 2389.85 8768.88 2389.91 8768.47 2390.04C8768.07 2390.16 8767.66 2390.31 8767.26 2390.49L8766.47 2388.87C8766.94 2388.63 8767.46 2388.43 8768.02 2388.3C8768.6 2388.16 8769.2 2388.09 8769.82 2388.09ZM8770.15 2392.98C8769.38 2393.01 8768.85 2393.14 8768.55 2393.4C8768.25 2393.66 8768.1 2393.99 8768.1 2394.41C8768.1 2394.77 8768.21 2395.03 8768.42 2395.19C8768.64 2395.34 8768.92 2395.42 8769.26 2395.42C8769.77 2395.42 8770.2 2395.27 8770.55 2394.97C8770.9 2394.66 8771.08 2394.23 8771.08 2393.67V2392.95L8770.15 2392.98ZM8780.75 2388.1C8781.73 2388.1 8782.53 2388.49 8783.14 2389.26C8783.74 2390.01 8784.05 2391.13 8784.05 2392.62C8784.05 2393.61 8783.9 2394.45 8783.62 2395.13C8783.33 2395.8 8782.93 2396.31 8782.43 2396.65C8781.93 2396.99 8781.35 2397.16 8780.69 2397.16C8780.27 2397.16 8779.91 2397.11 8779.6 2397C8779.3 2396.89 8779.05 2396.75 8778.83 2396.58C8778.62 2396.41 8778.43 2396.23 8778.27 2396.04H8778.14C8778.19 2396.24 8778.22 2396.46 8778.24 2396.68C8778.26 2396.89 8778.27 2397.11 8778.27 2397.32V2400.84H8775.89V2388.26H8777.82L8778.16 2389.4H8778.27C8778.43 2389.17 8778.62 2388.95 8778.85 2388.76C8779.07 2388.56 8779.34 2388.4 8779.65 2388.28C8779.97 2388.16 8780.34 2388.1 8780.75 2388.1ZM8779.98 2390.01C8779.57 2390.01 8779.24 2390.09 8778.99 2390.26C8778.75 2390.43 8778.57 2390.7 8778.45 2391.05C8778.34 2391.39 8778.28 2391.82 8778.27 2392.34V2392.6C8778.27 2393.17 8778.33 2393.65 8778.43 2394.04C8778.54 2394.42 8778.72 2394.72 8778.98 2394.92C8779.23 2395.12 8779.58 2395.22 8780.02 2395.22C8780.38 2395.22 8780.68 2395.12 8780.91 2394.92C8781.15 2394.72 8781.32 2394.42 8781.44 2394.02C8781.56 2393.63 8781.62 2393.15 8781.62 2392.58C8781.62 2391.73 8781.48 2391.09 8781.22 2390.66C8780.96 2390.23 8780.55 2390.01 8779.98 2390.01ZM8789.6 2388.09C8790.77 2388.09 8791.67 2388.34 8792.29 2388.86C8792.91 2389.36 8793.23 2390.13 8793.23 2391.18V2397H8791.57L8791.1 2395.82H8791.04C8790.79 2396.13 8790.54 2396.38 8790.27 2396.58C8790.01 2396.79 8789.71 2396.93 8789.37 2397.02C8789.04 2397.11 8788.63 2397.16 8788.14 2397.16C8787.63 2397.16 8787.17 2397.06 8786.75 2396.87C8786.34 2396.67 8786.02 2396.37 8785.79 2395.96C8785.55 2395.54 8785.44 2395.02 8785.44 2394.39C8785.44 2393.46 8785.76 2392.78 8786.41 2392.34C8787.06 2391.9 8788.04 2391.65 8789.34 2391.61L8790.86 2391.56V2391.18C8790.86 2390.72 8790.74 2390.38 8790.49 2390.17C8790.26 2389.95 8789.93 2389.85 8789.5 2389.85C8789.07 2389.85 8788.66 2389.91 8788.25 2390.04C8787.85 2390.16 8787.44 2390.31 8787.04 2390.49L8786.25 2388.87C8786.72 2388.63 8787.24 2388.43 8787.81 2388.3C8788.38 2388.16 8788.98 2388.09 8789.6 2388.09ZM8789.93 2392.98C8789.17 2393.01 8788.63 2393.14 8788.33 2393.4C8788.03 2393.66 8787.89 2393.99 8787.89 2394.41C8787.89 2394.77 8787.99 2395.03 8788.21 2395.19C8788.42 2395.34 8788.7 2395.42 8789.04 2395.42C8789.55 2395.42 8789.98 2395.27 8790.33 2394.97C8790.69 2394.66 8790.86 2394.23 8790.86 2393.67V2392.95L8789.93 2392.98ZM8799.22 2397.16C8798.36 2397.16 8797.62 2397.01 8797.01 2396.7C8796.41 2396.38 8795.94 2395.89 8795.62 2395.22C8795.3 2394.56 8795.14 2393.71 8795.14 2392.68C8795.14 2391.61 8795.32 2390.74 8795.69 2390.07C8796.05 2389.4 8796.55 2388.9 8797.19 2388.58C8797.84 2388.26 8798.59 2388.1 8799.43 2388.1C8800.03 2388.1 8800.54 2388.16 8800.98 2388.28C8801.43 2388.4 8801.82 2388.54 8802.15 2388.7L8801.45 2390.54C8801.07 2390.39 8800.72 2390.26 8800.39 2390.17C8800.07 2390.07 8799.75 2390.02 8799.43 2390.02C8799.01 2390.02 8798.67 2390.13 8798.39 2390.33C8798.11 2390.52 8797.9 2390.81 8797.77 2391.21C8797.64 2391.59 8797.57 2392.08 8797.57 2392.66C8797.57 2393.24 8797.64 2393.72 8797.78 2394.1C8797.93 2394.48 8798.14 2394.76 8798.42 2394.95C8798.7 2395.13 8799.04 2395.22 8799.43 2395.22C8799.93 2395.22 8800.37 2395.16 8800.76 2395.03C8801.14 2394.89 8801.52 2394.71 8801.88 2394.47V2396.5C8801.52 2396.74 8801.13 2396.9 8800.73 2397C8800.33 2397.11 8799.83 2397.16 8799.22 2397.16ZM8807.49 2388.1C8808.3 2388.1 8808.99 2388.26 8809.57 2388.57C8810.16 2388.88 8810.61 2389.33 8810.93 2389.91C8811.25 2390.5 8811.41 2391.22 8811.41 2392.07V2393.22H8805.78C8805.8 2393.9 8806 2394.42 8806.37 2394.81C8806.75 2395.19 8807.28 2395.38 8807.95 2395.38C8808.52 2395.38 8809.03 2395.33 8809.49 2395.22C8809.95 2395.11 8810.42 2394.93 8810.91 2394.7V2396.54C8810.49 2396.75 8810.03 2396.9 8809.55 2397C8809.08 2397.11 8808.51 2397.16 8807.84 2397.16C8806.97 2397.16 8806.19 2397 8805.52 2396.68C8804.85 2396.35 8804.32 2395.85 8803.94 2395.19C8803.55 2394.53 8803.36 2393.7 8803.36 2392.7C8803.36 2391.67 8803.53 2390.82 8803.87 2390.15C8804.22 2389.47 8804.71 2388.96 8805.33 2388.62C8805.95 2388.27 8806.67 2388.1 8807.49 2388.1ZM8807.5 2389.8C8807.05 2389.8 8806.66 2389.95 8806.35 2390.25C8806.05 2390.55 8805.88 2391.01 8805.82 2391.64H8809.17C8809.17 2391.29 8809.1 2390.97 8808.98 2390.7C8808.86 2390.42 8808.68 2390.2 8808.43 2390.04C8808.19 2389.88 8807.88 2389.8 8807.5 2389.8ZM8815.73 2388.26V2391.62H8819.05V2388.26H8821.44V2397H8819.05V2393.4H8815.73V2397H8813.34V2388.26H8815.73ZM8829.66 2388.26H8832.29L8828.83 2392.46L8832.59 2397H8829.89L8826.32 2392.57V2397H8823.94V2388.26H8826.32V2392.5L8829.66 2388.26ZM8841.47 2392.62C8841.47 2393.34 8841.36 2393.99 8841.16 2394.55C8840.97 2395.12 8840.69 2395.6 8840.31 2395.99C8839.95 2396.38 8839.51 2396.67 8838.99 2396.87C8838.46 2397.06 8837.87 2397.16 8837.21 2397.16C8836.6 2397.16 8836.04 2397.06 8835.51 2396.87C8835 2396.67 8834.56 2396.38 8834.19 2395.99C8833.81 2395.6 8833.52 2395.12 8833.31 2394.55C8833.1 2393.99 8833 2393.34 8833 2392.62C8833 2391.65 8833.17 2390.83 8833.51 2390.17C8833.85 2389.5 8834.35 2388.98 8834.99 2388.63C8835.63 2388.28 8836.38 2388.1 8837.26 2388.1C8838.08 2388.1 8838.8 2388.28 8839.43 2388.63C8840.06 2388.98 8840.56 2389.5 8840.92 2390.17C8841.28 2390.83 8841.47 2391.65 8841.47 2392.62ZM8835.43 2392.62C8835.43 2393.19 8835.49 2393.68 8835.61 2394.07C8835.74 2394.46 8835.93 2394.75 8836.2 2394.95C8836.47 2395.14 8836.81 2395.24 8837.24 2395.24C8837.67 2395.24 8838.01 2395.14 8838.27 2394.95C8838.53 2394.75 8838.72 2394.46 8838.84 2394.07C8838.97 2393.68 8839.03 2393.19 8839.03 2392.62C8839.03 2392.04 8838.97 2391.56 8838.84 2391.18C8838.72 2390.79 8838.53 2390.5 8838.27 2390.31C8838 2390.12 8837.65 2390.02 8837.23 2390.02C8836.6 2390.02 8836.14 2390.24 8835.85 2390.68C8835.57 2391.11 8835.43 2391.75 8835.43 2392.62Z" fill="#381B00"/>
<rect x="0.5" y="-0.5" width="169" height="88" rx="5.5" transform="matrix(-1 0 0 1 8922.79 2649)" fill="#2C70C1" fill-opacity="0.43" stroke="black"/>
<path d="M8790.81 2687.27C8790.81 2688.16 8790.7 2688.96 8790.47 2689.69C8790.26 2690.4 8789.93 2691.02 8789.48 2691.54C8789.04 2692.07 8788.48 2692.47 8787.78 2692.74C8787.1 2693.02 8786.3 2693.16 8785.37 2693.16C8784.44 2693.16 8783.63 2693.02 8782.94 2692.74C8782.25 2692.46 8781.69 2692.06 8781.24 2691.54C8780.8 2691.02 8780.47 2690.4 8780.25 2689.67C8780.03 2688.95 8779.93 2688.14 8779.93 2687.26C8779.93 2686.07 8780.12 2685.04 8780.5 2684.17C8780.9 2683.29 8781.5 2682.62 8782.3 2682.14C8783.11 2681.65 8784.14 2681.4 8785.38 2681.4C8786.62 2681.4 8787.64 2681.65 8788.44 2682.14C8789.24 2682.62 8789.83 2683.3 8790.22 2684.18C8790.61 2685.06 8790.81 2686.09 8790.81 2687.27ZM8782.47 2687.27C8782.47 2688.07 8782.57 2688.76 8782.78 2689.34C8782.98 2689.91 8783.29 2690.35 8783.72 2690.66C8784.15 2690.97 8784.7 2691.13 8785.37 2691.13C8786.06 2691.13 8786.62 2690.97 8787.03 2690.66C8787.46 2690.35 8787.77 2689.91 8787.96 2689.34C8788.16 2688.76 8788.26 2688.07 8788.26 2687.27C8788.26 2686.07 8788.04 2685.12 8787.59 2684.44C8787.14 2683.76 8786.41 2683.42 8785.38 2683.42C8784.7 2683.42 8784.15 2683.57 8783.72 2683.88C8783.29 2684.19 8782.98 2684.63 8782.78 2685.21C8782.57 2685.78 8782.47 2686.47 8782.47 2687.27ZM8800.65 2693H8798.27V2686.06H8796.07C8795.97 2687.34 8795.83 2688.43 8795.67 2689.34C8795.52 2690.23 8795.33 2690.96 8795.1 2691.53C8794.87 2692.09 8794.59 2692.51 8794.23 2692.78C8793.88 2693.03 8793.45 2693.16 8792.94 2693.16C8792.66 2693.16 8792.41 2693.14 8792.19 2693.1C8791.96 2693.05 8791.76 2692.99 8791.58 2692.9V2691C8791.7 2691.04 8791.82 2691.08 8791.95 2691.11C8792.07 2691.14 8792.21 2691.16 8792.35 2691.16C8792.5 2691.16 8792.63 2691.1 8792.76 2690.98C8792.9 2690.87 8793.03 2690.66 8793.15 2690.36C8793.27 2690.06 8793.39 2689.65 8793.5 2689.13C8793.6 2688.61 8793.7 2687.95 8793.79 2687.16C8793.88 2686.36 8793.97 2685.39 8794.04 2684.26H8800.65V2693ZM8807.2 2687.64C8808.1 2687.64 8808.84 2687.74 8809.43 2687.93C8810.01 2688.11 8810.45 2688.39 8810.72 2688.78C8811.01 2689.16 8811.15 2689.64 8811.15 2690.22C8811.15 2690.78 8811.02 2691.27 8810.75 2691.69C8810.5 2692.1 8810.09 2692.43 8809.52 2692.66C8808.96 2692.89 8808.22 2693 8807.3 2693H8803.14V2684.26H8805.52V2687.64H8807.2ZM8808.77 2690.25C8808.77 2689.91 8808.63 2689.66 8808.35 2689.51C8808.09 2689.36 8807.69 2689.29 8807.15 2689.29H8805.52V2691.35H8807.19C8807.66 2691.35 8808.03 2691.27 8808.32 2691.1C8808.62 2690.93 8808.77 2690.64 8808.77 2690.25ZM8819 2684.26V2686.06H8815.35V2693H8812.97V2684.26H8819ZM8824.19 2684.09C8825.36 2684.09 8826.26 2684.34 8826.88 2684.86C8827.51 2685.36 8827.82 2686.13 8827.82 2687.18V2693H8826.16L8825.7 2691.82H8825.63C8825.39 2692.13 8825.13 2692.38 8824.86 2692.58C8824.61 2692.79 8824.31 2692.93 8823.97 2693.02C8823.64 2693.11 8823.23 2693.16 8822.74 2693.16C8822.22 2693.16 8821.76 2693.06 8821.34 2692.87C8820.94 2692.67 8820.62 2692.37 8820.38 2691.96C8820.15 2691.54 8820.03 2691.02 8820.03 2690.39C8820.03 2689.46 8820.36 2688.78 8821.01 2688.34C8821.66 2687.9 8822.63 2687.65 8823.94 2687.61L8825.46 2687.56V2687.18C8825.46 2686.72 8825.33 2686.38 8825.09 2686.17C8824.85 2685.95 8824.52 2685.85 8824.1 2685.85C8823.67 2685.85 8823.25 2685.91 8822.85 2686.04C8822.44 2686.16 8822.04 2686.31 8821.63 2686.49L8820.85 2684.87C8821.32 2684.63 8821.83 2684.43 8822.4 2684.3C8822.98 2684.16 8823.57 2684.09 8824.19 2684.09ZM8824.53 2688.98C8823.76 2689.01 8823.23 2689.14 8822.93 2689.4C8822.63 2689.66 8822.48 2689.99 8822.48 2690.41C8822.48 2690.77 8822.59 2691.03 8822.8 2691.19C8823.01 2691.34 8823.29 2691.42 8823.63 2691.42C8824.14 2691.42 8824.58 2691.27 8824.93 2690.97C8825.28 2690.66 8825.46 2690.23 8825.46 2689.67V2688.95L8824.53 2688.98ZM8842.54 2693H8840.13V2683.59H8837.33C8837.26 2684.08 8837.19 2684.62 8837.12 2685.19C8837.05 2685.77 8836.98 2686.35 8836.89 2686.95C8836.82 2687.54 8836.74 2688.1 8836.65 2688.63C8836.57 2689.15 8836.48 2689.62 8836.4 2690.02C8836.26 2690.69 8836.07 2691.25 8835.84 2691.72C8835.61 2692.19 8835.3 2692.55 8834.89 2692.79C8834.5 2693.04 8833.98 2693.16 8833.34 2693.16C8833.13 2693.16 8832.93 2693.14 8832.73 2693.11C8832.54 2693.08 8832.36 2693.04 8832.19 2692.98V2691C8832.33 2691.04 8832.46 2691.08 8832.59 2691.11C8832.73 2691.14 8832.88 2691.16 8833.04 2691.16C8833.25 2691.16 8833.43 2691.09 8833.57 2690.95C8833.71 2690.81 8833.83 2690.58 8833.93 2690.25C8834.04 2689.91 8834.15 2689.44 8834.25 2688.84C8834.31 2688.58 8834.37 2688.22 8834.45 2687.75C8834.52 2687.27 8834.61 2686.71 8834.7 2686.07C8834.81 2685.42 8834.92 2684.72 8835.02 2683.96C8835.13 2683.19 8835.23 2682.4 8835.33 2681.58H8842.54V2693ZM8843.98 2684.26H8846.59L8848.24 2689.18C8848.29 2689.34 8848.34 2689.5 8848.37 2689.66C8848.41 2689.82 8848.44 2689.98 8848.46 2690.15C8848.5 2690.32 8848.52 2690.5 8848.53 2690.7H8848.58C8848.61 2690.42 8848.65 2690.16 8848.7 2689.91C8848.77 2689.66 8848.84 2689.41 8848.91 2689.18L8850.53 2684.26H8853.09L8849.39 2694.12C8849.17 2694.72 8848.88 2695.22 8848.51 2695.62C8848.16 2696.03 8847.75 2696.33 8847.28 2696.54C8846.81 2696.74 8846.3 2696.84 8845.74 2696.84C8845.48 2696.84 8845.24 2696.82 8845.04 2696.79C8844.85 2696.77 8844.68 2696.74 8844.53 2696.71V2694.82C8844.65 2694.85 8844.78 2694.87 8844.94 2694.89C8845.12 2694.91 8845.29 2694.92 8845.47 2694.92C8845.8 2694.92 8846.09 2694.85 8846.32 2694.71C8846.57 2694.57 8846.77 2694.38 8846.93 2694.14C8847.09 2693.9 8847.22 2693.65 8847.31 2693.37L8847.46 2692.94L8843.98 2684.26ZM8861.57 2686.06H8858.71V2693H8856.33V2686.06H8853.46V2684.26H8861.57V2686.06ZM8868.91 2684.26H8871.54L8868.08 2688.46L8871.84 2693H8869.14L8865.57 2688.57V2693H8863.19V2684.26H8865.57V2688.5L8868.91 2684.26ZM8880.72 2688.62C8880.72 2689.34 8880.61 2689.99 8880.41 2690.55C8880.22 2691.12 8879.94 2691.6 8879.56 2691.99C8879.2 2692.38 8878.76 2692.67 8878.24 2692.87C8877.71 2693.06 8877.12 2693.16 8876.46 2693.16C8875.85 2693.16 8875.29 2693.06 8874.76 2692.87C8874.25 2692.67 8873.81 2692.38 8873.44 2691.99C8873.06 2691.6 8872.77 2691.12 8872.56 2690.55C8872.35 2689.99 8872.25 2689.34 8872.25 2688.62C8872.25 2687.65 8872.42 2686.83 8872.76 2686.17C8873.1 2685.5 8873.6 2684.98 8874.24 2684.63C8874.88 2684.28 8875.63 2684.1 8876.51 2684.1C8877.33 2684.1 8878.05 2684.28 8878.68 2684.63C8879.31 2684.98 8879.81 2685.5 8880.17 2686.17C8880.53 2686.83 8880.72 2687.65 8880.72 2688.62ZM8874.68 2688.62C8874.68 2689.19 8874.74 2689.68 8874.86 2690.07C8874.99 2690.46 8875.18 2690.75 8875.45 2690.95C8875.72 2691.14 8876.06 2691.24 8876.49 2691.24C8876.92 2691.24 8877.26 2691.14 8877.52 2690.95C8877.78 2690.75 8877.97 2690.46 8878.09 2690.07C8878.22 2689.68 8878.28 2689.19 8878.28 2688.62C8878.28 2688.04 8878.22 2687.56 8878.09 2687.18C8877.97 2686.79 8877.78 2686.5 8877.52 2686.31C8877.25 2686.12 8876.9 2686.02 8876.48 2686.02C8875.85 2686.02 8875.39 2686.24 8875.1 2686.68C8874.82 2687.11 8874.68 2687.75 8874.68 2688.62ZM8890.43 2686.55C8890.43 2687.02 8890.28 2687.42 8889.98 2687.75C8889.69 2688.08 8889.26 2688.3 8888.69 2688.39V2688.46C8889.29 2688.53 8889.78 2688.74 8890.14 2689.08C8890.51 2689.42 8890.7 2689.86 8890.7 2690.39C8890.7 2690.77 8890.63 2691.11 8890.48 2691.43C8890.34 2691.75 8890.11 2692.03 8889.81 2692.26C8889.5 2692.5 8889.1 2692.68 8888.61 2692.81C8888.13 2692.94 8887.54 2693 8886.85 2693H8882.69V2684.26H8886.85C8887.53 2684.26 8888.14 2684.34 8888.67 2684.49C8889.21 2684.63 8889.64 2684.86 8889.95 2685.19C8890.27 2685.52 8890.43 2685.98 8890.43 2686.55ZM8888.24 2690.26C8888.24 2689.92 8888.1 2689.68 8887.84 2689.53C8887.57 2689.37 8887.17 2689.29 8886.64 2689.29H8885.07V2691.35H8886.69C8887.13 2691.35 8887.5 2691.27 8887.79 2691.11C8888.09 2690.94 8888.24 2690.66 8888.24 2690.26ZM8888.01 2686.74C8888.01 2686.47 8887.91 2686.26 8887.69 2686.14C8887.48 2686.01 8887.17 2685.94 8886.75 2685.94H8885.07V2687.67H8886.48C8886.98 2687.67 8887.36 2687.6 8887.61 2687.46C8887.88 2687.31 8888.01 2687.07 8888.01 2686.74ZM8896.33 2684.09C8897.51 2684.09 8898.4 2684.34 8899.02 2684.86C8899.65 2685.36 8899.96 2686.13 8899.96 2687.18V2693H8898.3L8897.84 2691.82H8897.77C8897.53 2692.13 8897.27 2692.38 8897 2692.58C8896.75 2692.79 8896.45 2692.93 8896.11 2693.02C8895.78 2693.11 8895.37 2693.16 8894.88 2693.16C8894.36 2693.16 8893.9 2693.06 8893.48 2692.87C8893.08 2692.67 8892.76 2692.37 8892.52 2691.96C8892.29 2691.54 8892.17 2691.02 8892.17 2690.39C8892.17 2689.46 8892.5 2688.78 8893.15 2688.34C8893.8 2687.9 8894.77 2687.65 8896.08 2687.61L8897.6 2687.56V2687.18C8897.6 2686.72 8897.47 2686.38 8897.23 2686.17C8896.99 2685.95 8896.66 2685.85 8896.24 2685.85C8895.81 2685.85 8895.39 2685.91 8894.99 2686.04C8894.58 2686.16 8894.18 2686.31 8893.77 2686.49L8892.99 2684.87C8893.46 2684.63 8893.97 2684.43 8894.54 2684.3C8895.12 2684.16 8895.71 2684.09 8896.33 2684.09ZM8896.67 2688.98C8895.9 2689.01 8895.37 2689.14 8895.07 2689.4C8894.77 2689.66 8894.62 2689.99 8894.62 2690.41C8894.62 2690.77 8894.73 2691.03 8894.94 2691.19C8895.15 2691.34 8895.43 2691.42 8895.77 2691.42C8896.28 2691.42 8896.72 2691.27 8897.07 2690.97C8897.42 2690.66 8897.6 2690.23 8897.6 2689.67V2688.95L8896.67 2688.98Z" fill="#381B00"/>
<path d="M3780.21 77.6523C3780.21 78.8242 3779.95 79.931 3779.43 80.9727C3778.13 83.3164 3776.08 84.4883 3773.28 84.4883C3772.17 84.4883 3771.13 84.2279 3770.15 83.707C3767.68 82.4701 3766.44 80.4518 3766.44 77.6523C3766.44 76.5456 3766.7 75.4714 3767.22 74.4297C3768.52 71.9557 3770.54 70.7188 3773.28 70.7188C3774.38 70.7188 3775.46 70.9792 3776.5 71.5C3778.97 72.8672 3780.21 74.918 3780.21 77.6523Z" fill="#FF0000"/>
<path d="M16.2109 1602.65C16.2109 1603.82 15.9505 1604.93 15.4297 1605.97C14.1276 1608.32 12.0768 1609.49 9.27734 1609.49C8.17057 1609.49 7.12891 1609.23 6.15234 1608.71C3.67839 1607.47 2.44141 1605.45 2.44141 1602.65C2.44141 1601.55 2.70182 1600.47 3.22266 1599.43C4.52474 1596.96 6.54297 1595.72 9.27734 1595.72C10.3841 1595.72 11.4583 1595.98 12.5 1596.5C14.974 1597.87 16.2109 1599.92 16.2109 1602.65Z" fill="#FF0000"/>
</g>
</svg>
