<svg width="12092" height="2451" viewBox="0 0 12092 2451" fill="none" xmlns="http://www.w3.org/2000/svg"  transform="translate(-35, 0)">
<g opacity="0.8">
<rect x="11201.3" y="2022.5" width="170.032" height="88.5344" rx="5.5" fill="#687888" fill-opacity="0.2" stroke="black"/>
<path d="M11209.3 2031.62H11211.5V2037.14C11211.5 2037.41 11211.5 2037.7 11211.5 2038.04C11211.4 2038.37 11211.4 2038.69 11211.4 2039.01C11211.4 2039.32 11211.4 2039.59 11211.4 2039.83C11211.4 2040.05 11211.4 2040.21 11211.4 2040.29H11211.4L11216.7 2031.62H11219.6V2043.04H11217.4V2037.56C11217.4 2037.27 11217.4 2036.95 11217.4 2036.61C11217.4 2036.26 11217.5 2035.92 11217.5 2035.6C11217.5 2035.28 11217.5 2035.01 11217.5 2034.77C11217.5 2034.53 11217.6 2034.37 11217.6 2034.29H11217.5L11212.2 2043.04H11209.3V2031.62ZM11230 2036.6C11230 2037.06 11229.9 2037.46 11229.6 2037.8C11229.3 2038.13 11228.8 2038.34 11228.3 2038.44V2038.5C11228.9 2038.57 11229.4 2038.78 11229.7 2039.12C11230.1 2039.46 11230.3 2039.9 11230.3 2040.44C11230.3 2040.81 11230.2 2041.16 11230.1 2041.48C11229.9 2041.8 11229.7 2042.07 11229.4 2042.31C11229.1 2042.54 11228.7 2042.72 11228.2 2042.85C11227.7 2042.98 11227.1 2043.04 11226.4 2043.04H11222.3V2034.31H11226.4C11227.1 2034.31 11227.7 2034.38 11228.3 2034.53C11228.8 2034.67 11229.2 2034.9 11229.5 2035.24C11229.9 2035.57 11230 2036.02 11230 2036.6ZM11227.8 2040.31C11227.8 2039.97 11227.7 2039.72 11227.4 2039.57C11227.2 2039.41 11226.8 2039.33 11226.2 2039.33H11224.7V2041.4H11226.3C11226.7 2041.4 11227.1 2041.32 11227.4 2041.16C11227.7 2040.98 11227.8 2040.7 11227.8 2040.31ZM11227.6 2036.79C11227.6 2036.51 11227.5 2036.31 11227.3 2036.18C11227.1 2036.05 11226.8 2035.99 11226.3 2035.99H11224.7V2037.72H11226.1C11226.6 2037.72 11226.9 2037.65 11227.2 2037.51C11227.5 2037.36 11227.6 2037.12 11227.6 2036.79ZM11235.9 2034.13C11237.1 2034.13 11238 2034.39 11238.6 2034.9C11239.2 2035.4 11239.5 2036.17 11239.5 2037.22V2043.04H11237.9L11237.4 2041.86H11237.4C11237.1 2042.17 11236.9 2042.42 11236.6 2042.63C11236.3 2042.83 11236 2042.97 11235.7 2043.06C11235.4 2043.16 11235 2043.2 11234.5 2043.2C11233.9 2043.2 11233.5 2043.11 11233.1 2042.92C11232.7 2042.71 11232.3 2042.41 11232.1 2042C11231.9 2041.59 11231.8 2041.06 11231.8 2040.44C11231.8 2039.51 11232.1 2038.82 11232.7 2038.39C11233.4 2037.94 11234.4 2037.69 11235.7 2037.65L11237.2 2037.6V2037.22C11237.2 2036.76 11237.1 2036.42 11236.8 2036.21C11236.6 2036 11236.2 2035.89 11235.8 2035.89C11235.4 2035.89 11235 2035.96 11234.6 2036.08C11234.2 2036.2 11233.8 2036.35 11233.4 2036.53L11232.6 2034.92C11233 2034.67 11233.6 2034.48 11234.1 2034.34C11234.7 2034.2 11235.3 2034.13 11235.9 2034.13ZM11236.3 2039.03C11235.5 2039.05 11235 2039.19 11234.7 2039.44C11234.4 2039.7 11234.2 2040.04 11234.2 2040.45C11234.2 2040.81 11234.3 2041.08 11234.5 2041.24C11234.7 2041.38 11235 2041.46 11235.4 2041.46C11235.9 2041.46 11236.3 2041.31 11236.7 2041.01C11237 2040.7 11237.2 2040.27 11237.2 2039.72V2039L11236.3 2039.03ZM11244.4 2034.31V2037.67H11247.7V2034.31H11250.1V2043.04H11247.7V2039.44H11244.4V2043.04H11242V2034.31H11244.4ZM11255.8 2043.04V2031.62H11264.9V2043.04H11262.4V2033.64H11258.2V2043.04H11255.8ZM11275.5 2038.66C11275.5 2039.38 11275.4 2040.03 11275.2 2040.6C11275 2041.16 11274.7 2041.64 11274.3 2042.04C11274 2042.42 11273.5 2042.71 11273 2042.92C11272.5 2043.11 11271.9 2043.2 11271.2 2043.2C11270.6 2043.2 11270.1 2043.11 11269.5 2042.92C11269 2042.71 11268.6 2042.42 11268.2 2042.04C11267.8 2041.64 11267.5 2041.16 11267.3 2040.6C11267.1 2040.03 11267 2039.38 11267 2038.66C11267 2037.69 11267.2 2036.87 11267.5 2036.21C11267.9 2035.54 11268.4 2035.03 11269 2034.68C11269.6 2034.32 11270.4 2034.15 11271.3 2034.15C11272.1 2034.15 11272.8 2034.32 11273.5 2034.68C11274.1 2035.03 11274.6 2035.54 11274.9 2036.21C11275.3 2036.87 11275.5 2037.69 11275.5 2038.66ZM11269.5 2038.66C11269.5 2039.24 11269.5 2039.72 11269.6 2040.12C11269.8 2040.5 11270 2040.79 11270.2 2041C11270.5 2041.19 11270.8 2041.28 11271.3 2041.28C11271.7 2041.28 11272 2041.19 11272.3 2041C11272.6 2040.79 11272.7 2040.5 11272.9 2040.12C11273 2039.72 11273.1 2039.24 11273.1 2038.66C11273.1 2038.08 11273 2037.6 11272.9 2037.22C11272.7 2036.84 11272.6 2036.55 11272.3 2036.36C11272 2036.16 11271.7 2036.07 11271.2 2036.07C11270.6 2036.07 11270.2 2036.29 11269.9 2036.72C11269.6 2037.15 11269.5 2037.8 11269.5 2038.66ZM11279.8 2034.31V2037.67H11283.2V2034.31H11285.6V2043.04H11283.2V2039.44H11279.8V2043.04H11277.5V2034.31H11279.8ZM11291.7 2034.15C11292.5 2034.15 11293.2 2034.3 11293.7 2034.61C11294.3 2034.92 11294.8 2035.37 11295.1 2035.96C11295.4 2036.54 11295.6 2037.26 11295.6 2038.12V2039.27H11289.9C11290 2039.94 11290.2 2040.47 11290.5 2040.85C11290.9 2041.24 11291.4 2041.43 11292.1 2041.43C11292.7 2041.43 11293.2 2041.37 11293.7 2041.27C11294.1 2041.15 11294.6 2040.97 11295.1 2040.74V2042.58C11294.7 2042.79 11294.2 2042.95 11293.7 2043.04C11293.2 2043.15 11292.7 2043.2 11292 2043.2C11291.1 2043.2 11290.4 2043.04 11289.7 2042.72C11289 2042.39 11288.5 2041.9 11288.1 2041.24C11287.7 2040.57 11287.5 2039.74 11287.5 2038.74C11287.5 2037.72 11287.7 2036.87 11288 2036.2C11288.4 2035.51 11288.9 2035 11289.5 2034.66C11290.1 2034.32 11290.8 2034.15 11291.7 2034.15ZM11291.7 2035.84C11291.2 2035.84 11290.8 2035.99 11290.5 2036.29C11290.2 2036.59 11290 2037.05 11290 2037.68H11293.3C11293.3 2037.33 11293.3 2037.02 11293.1 2036.74C11293 2036.46 11292.8 2036.24 11292.6 2036.08C11292.4 2035.92 11292 2035.84 11291.7 2035.84ZM11305.4 2034.31V2041.3H11306.6V2046.18H11304.5V2043.04H11298.6V2046.18H11296.5V2041.3H11297.2C11297.6 2040.71 11297.9 2040.05 11298.2 2039.3C11298.5 2038.54 11298.7 2037.74 11298.8 2036.88C11299 2036.03 11299.1 2035.17 11299.2 2034.31H11305.4ZM11301.2 2036.1C11301.1 2036.74 11301 2037.36 11300.9 2037.97C11300.7 2038.57 11300.6 2039.14 11300.4 2039.7C11300.2 2040.25 11300 2040.79 11299.7 2041.3H11303V2036.1H11301.2ZM11311.7 2034.15C11312.5 2034.15 11313.2 2034.3 11313.8 2034.61C11314.4 2034.92 11314.9 2035.37 11315.2 2035.96C11315.5 2036.54 11315.7 2037.26 11315.7 2038.12V2039.27H11310C11310 2039.94 11310.2 2040.47 11310.6 2040.85C11311 2041.24 11311.5 2041.43 11312.2 2041.43C11312.8 2041.43 11313.3 2041.37 11313.7 2041.27C11314.2 2041.15 11314.7 2040.97 11315.2 2040.74V2042.58C11314.7 2042.79 11314.3 2042.95 11313.8 2043.04C11313.3 2043.15 11312.8 2043.2 11312.1 2043.2C11311.2 2043.2 11310.4 2043.04 11309.8 2042.72C11309.1 2042.39 11308.6 2041.9 11308.2 2041.24C11307.8 2040.57 11307.6 2039.74 11307.6 2038.74C11307.6 2037.72 11307.8 2036.87 11308.1 2036.2C11308.5 2035.51 11309 2035 11309.6 2034.66C11310.2 2034.32 11310.9 2034.15 11311.7 2034.15ZM11311.7 2035.84C11311.3 2035.84 11310.9 2035.99 11310.6 2036.29C11310.3 2036.59 11310.1 2037.05 11310.1 2037.68H11313.4C11313.4 2037.33 11313.3 2037.02 11313.2 2036.74C11313.1 2036.46 11312.9 2036.24 11312.7 2036.08C11312.4 2035.92 11312.1 2035.84 11311.7 2035.84ZM11325.4 2043.04H11323V2036.1H11320.8C11320.7 2037.38 11320.6 2038.47 11320.4 2039.38C11320.3 2040.28 11320.1 2041.01 11319.9 2041.57C11319.6 2042.14 11319.3 2042.55 11319 2042.82C11318.6 2043.08 11318.2 2043.2 11317.7 2043.2C11317.4 2043.2 11317.2 2043.18 11316.9 2043.14C11316.7 2043.1 11316.5 2043.03 11316.3 2042.95V2041.04C11316.5 2041.09 11316.6 2041.12 11316.7 2041.16C11316.8 2041.19 11317 2041.2 11317.1 2041.2C11317.3 2041.2 11317.4 2041.14 11317.5 2041.03C11317.7 2040.91 11317.8 2040.7 11317.9 2040.4C11318 2040.1 11318.1 2039.69 11318.3 2039.17C11318.4 2038.65 11318.5 2037.99 11318.5 2037.2C11318.6 2036.4 11318.7 2035.44 11318.8 2034.31H11325.4V2043.04ZM11332 2037.68C11332.9 2037.68 11333.6 2037.78 11334.2 2037.97C11334.8 2038.15 11335.2 2038.44 11335.5 2038.82C11335.8 2039.2 11335.9 2039.68 11335.9 2040.26C11335.9 2040.82 11335.8 2041.32 11335.5 2041.73C11335.3 2042.15 11334.8 2042.47 11334.3 2042.71C11333.7 2042.93 11333 2043.04 11332.1 2043.04H11327.9V2034.31H11330.3V2037.68H11332ZM11333.5 2040.29C11333.5 2039.95 11333.4 2039.7 11333.1 2039.56C11332.8 2039.41 11332.4 2039.33 11331.9 2039.33H11330.3V2041.4H11331.9C11332.4 2041.4 11332.8 2041.31 11333.1 2041.14C11333.4 2040.97 11333.5 2040.69 11333.5 2040.29ZM11340.1 2034.31V2037.67H11343.4V2034.31H11345.8V2043.04H11343.4V2039.44H11340.1V2043.04H11337.7V2034.31H11340.1ZM11350.6 2037.76C11350.6 2037.94 11350.6 2038.17 11350.6 2038.44C11350.6 2038.7 11350.6 2038.97 11350.5 2039.25C11350.5 2039.53 11350.5 2039.77 11350.5 2039.99C11350.5 2040.2 11350.5 2040.35 11350.4 2040.44L11354.5 2034.31H11357.3V2043.04H11355V2039.56C11355 2039.27 11355 2038.95 11355.1 2038.61C11355.1 2038.26 11355.1 2037.93 11355.1 2037.64C11355.2 2037.33 11355.2 2037.09 11355.2 2036.93L11351.2 2043.04H11348.3V2034.31H11350.6V2037.76ZM11365.6 2034.31H11368.2L11364.7 2038.5L11368.5 2043.04H11365.8L11362.2 2038.61V2043.04H11359.8V2034.31H11362.2V2038.55L11365.6 2034.31Z" fill="#381B00"/>
<rect x="11895.5" y="2345.5" width="170.032" height="88.5344" rx="5.5" fill="#687888" fill-opacity="0.2" stroke="black"/>
<path d="M11903.5 2354.62H11905.7V2360.14C11905.7 2360.41 11905.7 2360.71 11905.6 2361.04C11905.6 2361.37 11905.6 2361.69 11905.6 2362.01C11905.6 2362.32 11905.6 2362.59 11905.6 2362.83C11905.6 2363.05 11905.6 2363.21 11905.5 2363.29H11905.6L11910.9 2354.62H11913.8V2366.04H11911.6V2360.56C11911.6 2360.27 11911.6 2359.95 11911.6 2359.61C11911.6 2359.26 11911.6 2358.92 11911.7 2358.6C11911.7 2358.28 11911.7 2358.01 11911.7 2357.77C11911.7 2357.53 11911.7 2357.37 11911.8 2357.29H11911.7L11906.4 2366.04H11903.5V2354.62ZM11924.2 2359.6C11924.2 2360.07 11924.1 2360.47 11923.8 2360.8C11923.5 2361.13 11923 2361.34 11922.5 2361.44V2361.5C11923.1 2361.58 11923.6 2361.78 11923.9 2362.12C11924.3 2362.47 11924.5 2362.9 11924.5 2363.44C11924.5 2363.81 11924.4 2364.16 11924.3 2364.48C11924.1 2364.8 11923.9 2365.07 11923.6 2365.31C11923.3 2365.54 11922.9 2365.72 11922.4 2365.85C11921.9 2365.98 11921.3 2366.04 11920.6 2366.04H11916.5V2357.31H11920.6C11921.3 2357.31 11921.9 2357.38 11922.4 2357.53C11923 2357.67 11923.4 2357.91 11923.7 2358.24C11924 2358.57 11924.2 2359.02 11924.2 2359.6ZM11922 2363.31C11922 2362.97 11921.9 2362.72 11921.6 2362.57C11921.3 2362.41 11920.9 2362.33 11920.4 2362.33H11918.8V2364.4H11920.5C11920.9 2364.4 11921.3 2364.32 11921.6 2364.16C11921.9 2363.99 11922 2363.7 11922 2363.31ZM11921.8 2359.79C11921.8 2359.51 11921.7 2359.31 11921.5 2359.18C11921.3 2359.05 11920.9 2358.99 11920.5 2358.99H11918.8V2360.72H11920.3C11920.8 2360.72 11921.1 2360.65 11921.4 2360.51C11921.7 2360.36 11921.8 2360.12 11921.8 2359.79ZM11930.1 2357.13C11931.3 2357.13 11932.2 2357.39 11932.8 2357.9C11933.4 2358.4 11933.7 2359.18 11933.7 2360.22V2366.04H11932.1L11931.6 2364.86H11931.5C11931.3 2365.17 11931 2365.43 11930.8 2365.63C11930.5 2365.83 11930.2 2365.98 11929.9 2366.06C11929.6 2366.16 11929.1 2366.2 11928.7 2366.2C11928.1 2366.2 11927.7 2366.11 11927.3 2365.92C11926.9 2365.71 11926.5 2365.41 11926.3 2365C11926.1 2364.59 11925.9 2364.07 11925.9 2363.44C11925.9 2362.51 11926.3 2361.83 11926.9 2361.39C11927.6 2360.94 11928.6 2360.7 11929.9 2360.65L11931.4 2360.6V2360.22C11931.4 2359.76 11931.2 2359.43 11931 2359.21C11930.8 2359 11930.4 2358.89 11930 2358.89C11929.6 2358.89 11929.2 2358.96 11928.8 2359.08C11928.4 2359.2 11928 2359.35 11927.5 2359.53L11926.8 2357.92C11927.2 2357.67 11927.8 2357.48 11928.3 2357.34C11928.9 2357.2 11929.5 2357.13 11930.1 2357.13ZM11930.4 2362.03C11929.7 2362.05 11929.1 2362.19 11928.8 2362.44C11928.5 2362.7 11928.4 2363.04 11928.4 2363.45C11928.4 2363.82 11928.5 2364.08 11928.7 2364.24C11928.9 2364.39 11929.2 2364.46 11929.5 2364.46C11930.1 2364.46 11930.5 2364.31 11930.8 2364.01C11931.2 2363.7 11931.4 2363.27 11931.4 2362.72V2362L11930.4 2362.03ZM11938.6 2357.31V2360.67H11941.9V2357.31H11944.3V2366.04H11941.9V2362.44H11938.6V2366.04H11936.2V2357.31H11938.6ZM11950 2366.04V2354.62H11959.1V2366.04H11956.6V2356.64H11952.4V2366.04H11950ZM11969.7 2361.66C11969.7 2362.39 11969.6 2363.03 11969.4 2363.6C11969.2 2364.16 11968.9 2364.64 11968.5 2365.04C11968.2 2365.42 11967.7 2365.71 11967.2 2365.92C11966.7 2366.11 11966.1 2366.2 11965.4 2366.2C11964.8 2366.2 11964.2 2366.11 11963.7 2365.92C11963.2 2365.71 11962.8 2365.42 11962.4 2365.04C11962 2364.64 11961.7 2364.16 11961.5 2363.6C11961.3 2363.03 11961.2 2362.39 11961.2 2361.66C11961.2 2360.69 11961.4 2359.87 11961.7 2359.21C11962.1 2358.54 11962.6 2358.03 11963.2 2357.68C11963.8 2357.32 11964.6 2357.15 11965.5 2357.15C11966.3 2357.15 11967 2357.32 11967.6 2357.68C11968.3 2358.03 11968.8 2358.54 11969.1 2359.21C11969.5 2359.87 11969.7 2360.69 11969.7 2361.66ZM11963.6 2361.66C11963.6 2362.24 11963.7 2362.72 11963.8 2363.12C11964 2363.5 11964.1 2363.79 11964.4 2364C11964.7 2364.19 11965 2364.28 11965.5 2364.28C11965.9 2364.28 11966.2 2364.19 11966.5 2364C11966.7 2363.79 11966.9 2363.5 11967.1 2363.12C11967.2 2362.72 11967.2 2362.24 11967.2 2361.66C11967.2 2361.08 11967.2 2360.6 11967.1 2360.22C11966.9 2359.84 11966.7 2359.55 11966.5 2359.36C11966.2 2359.16 11965.9 2359.07 11965.4 2359.07C11964.8 2359.07 11964.4 2359.29 11964.1 2359.72C11963.8 2360.15 11963.6 2360.8 11963.6 2361.66ZM11974 2357.31V2360.67H11977.4V2357.31H11979.7V2366.04H11977.4V2362.44H11974V2366.04H11971.6V2357.31H11974ZM11985.8 2357.15C11986.7 2357.15 11987.3 2357.3 11987.9 2357.61C11988.5 2357.92 11989 2358.37 11989.3 2358.96C11989.6 2359.54 11989.8 2360.26 11989.8 2361.12V2362.27H11984.1C11984.2 2362.94 11984.3 2363.47 11984.7 2363.85C11985.1 2364.24 11985.6 2364.43 11986.3 2364.43C11986.9 2364.43 11987.4 2364.38 11987.8 2364.27C11988.3 2364.15 11988.8 2363.98 11989.3 2363.74V2365.58C11988.8 2365.79 11988.4 2365.95 11987.9 2366.04C11987.4 2366.15 11986.9 2366.2 11986.2 2366.2C11985.3 2366.2 11984.5 2366.04 11983.9 2365.72C11983.2 2365.39 11982.7 2364.9 11982.3 2364.24C11981.9 2363.58 11981.7 2362.74 11981.7 2361.74C11981.7 2360.72 11981.9 2359.87 11982.2 2359.2C11982.6 2358.51 11983.1 2358 11983.7 2357.66C11984.3 2357.32 11985 2357.15 11985.8 2357.15ZM11985.9 2358.84C11985.4 2358.84 11985 2358.99 11984.7 2359.29C11984.4 2359.59 11984.2 2360.06 11984.2 2360.68H11987.5C11987.5 2360.33 11987.5 2360.02 11987.3 2359.74C11987.2 2359.46 11987 2359.24 11986.8 2359.08C11986.5 2358.92 11986.2 2358.84 11985.9 2358.84ZM11999.6 2357.31V2364.3H12000.8V2369.18H11998.7V2366.04H11992.8V2369.18H11990.7V2364.3H11991.4C11991.8 2363.71 11992.1 2363.05 11992.4 2362.3C11992.6 2361.54 11992.9 2360.74 11993 2359.88C11993.2 2359.03 11993.3 2358.17 11993.4 2357.31H11999.6ZM11995.4 2359.1C11995.3 2359.74 11995.2 2360.36 11995.1 2360.97C11994.9 2361.57 11994.8 2362.15 11994.6 2362.7C11994.4 2363.26 11994.2 2363.79 11993.9 2364.3H11997.2V2359.1H11995.4ZM12005.9 2357.15C12006.7 2357.15 12007.4 2357.3 12008 2357.61C12008.6 2357.92 12009 2358.37 12009.4 2358.96C12009.7 2359.54 12009.8 2360.26 12009.8 2361.12V2362.27H12004.2C12004.2 2362.94 12004.4 2363.47 12004.8 2363.85C12005.2 2364.24 12005.7 2364.43 12006.4 2364.43C12006.9 2364.43 12007.5 2364.38 12007.9 2364.27C12008.4 2364.15 12008.9 2363.98 12009.3 2363.74V2365.58C12008.9 2365.79 12008.5 2365.95 12008 2366.04C12007.5 2366.15 12006.9 2366.2 12006.3 2366.2C12005.4 2366.2 12004.6 2366.04 12004 2365.72C12003.3 2365.39 12002.8 2364.9 12002.4 2364.24C12002 2363.58 12001.8 2362.74 12001.8 2361.74C12001.8 2360.72 12002 2359.87 12002.3 2359.2C12002.7 2358.51 12003.1 2358 12003.8 2357.66C12004.4 2357.32 12005.1 2357.15 12005.9 2357.15ZM12005.9 2358.84C12005.5 2358.84 12005.1 2358.99 12004.8 2359.29C12004.5 2359.59 12004.3 2360.06 12004.3 2360.68H12007.6C12007.6 2360.33 12007.5 2360.02 12007.4 2359.74C12007.3 2359.46 12007.1 2359.24 12006.9 2359.08C12006.6 2358.92 12006.3 2358.84 12005.9 2358.84ZM12019.6 2366.04H12017.2V2359.1H12015C12014.9 2360.38 12014.8 2361.47 12014.6 2362.38C12014.5 2363.28 12014.3 2364.01 12014 2364.57C12013.8 2365.14 12013.5 2365.55 12013.2 2365.82C12012.8 2366.08 12012.4 2366.2 12011.9 2366.2C12011.6 2366.2 12011.4 2366.18 12011.1 2366.14C12010.9 2366.1 12010.7 2366.03 12010.5 2365.95V2364.04C12010.6 2364.09 12010.8 2364.12 12010.9 2364.16C12011 2364.19 12011.2 2364.2 12011.3 2364.2C12011.4 2364.2 12011.6 2364.15 12011.7 2364.03C12011.8 2363.91 12012 2363.7 12012.1 2363.4C12012.2 2363.11 12012.3 2362.7 12012.4 2362.17C12012.6 2361.65 12012.6 2360.99 12012.7 2360.2C12012.8 2359.4 12012.9 2358.44 12013 2357.31H12019.6V2366.04ZM12026.1 2360.68C12027 2360.68 12027.8 2360.78 12028.4 2360.97C12029 2361.15 12029.4 2361.44 12029.7 2361.82C12030 2362.2 12030.1 2362.68 12030.1 2363.26C12030.1 2363.83 12030 2364.32 12029.7 2364.73C12029.4 2365.15 12029 2365.47 12028.5 2365.71C12027.9 2365.93 12027.2 2366.04 12026.2 2366.04H12022.1V2357.31H12024.5V2360.68H12026.1ZM12027.7 2363.29C12027.7 2362.95 12027.6 2362.71 12027.3 2362.56C12027 2362.41 12026.6 2362.33 12026.1 2362.33H12024.5V2364.4H12026.1C12026.6 2364.4 12027 2364.31 12027.3 2364.14C12027.6 2363.97 12027.7 2363.69 12027.7 2363.29ZM12034.3 2357.31V2360.67H12037.6V2357.31H12040V2366.04H12037.6V2362.44H12034.3V2366.04H12031.9V2357.31H12034.3ZM12044.8 2360.76C12044.8 2360.95 12044.8 2361.17 12044.8 2361.44C12044.8 2361.7 12044.8 2361.98 12044.7 2362.25C12044.7 2362.53 12044.7 2362.78 12044.7 2362.99C12044.7 2363.2 12044.6 2363.35 12044.6 2363.44L12048.7 2357.31H12051.5V2366.04H12049.2V2362.56C12049.2 2362.27 12049.2 2361.95 12049.3 2361.61C12049.3 2361.26 12049.3 2360.94 12049.3 2360.64C12049.4 2360.33 12049.4 2360.09 12049.4 2359.93L12045.4 2366.04H12042.5V2357.31H12044.8V2360.76ZM12059.8 2357.31H12062.4L12058.9 2361.5L12062.7 2366.04H12060L12056.4 2361.61V2366.04H12054V2357.31H12056.4V2361.55L12059.8 2357.31Z" fill="#381B00"/>
<path d="M11904.5 2445.47V2445.87H11903V2449.04H11902.5V2445.47H11904.5ZM11907.1 2447.7C11907.1 2447.92 11907 2448.12 11907 2448.29C11906.9 2448.46 11906.8 2448.61 11906.7 2448.73C11906.6 2448.85 11906.5 2448.94 11906.3 2449C11906.2 2449.06 11906 2449.09 11905.8 2449.09C11905.6 2449.09 11905.5 2449.06 11905.3 2449C11905.2 2448.94 11905 2448.85 11904.9 2448.73C11904.8 2448.61 11904.7 2448.46 11904.7 2448.29C11904.6 2448.12 11904.6 2447.92 11904.6 2447.7C11904.6 2447.4 11904.6 2447.15 11904.7 2446.95C11904.8 2446.74 11905 2446.59 11905.2 2446.48C11905.4 2446.37 11905.6 2446.31 11905.8 2446.31C11906.1 2446.31 11906.3 2446.37 11906.5 2446.48C11906.7 2446.59 11906.8 2446.74 11906.9 2446.95C11907 2447.15 11907.1 2447.4 11907.1 2447.7ZM11905 2447.7C11905 2447.91 11905.1 2448.09 11905.1 2448.25C11905.2 2448.4 11905.3 2448.52 11905.4 2448.6C11905.5 2448.69 11905.6 2448.73 11905.8 2448.73C11906 2448.73 11906.2 2448.69 11906.3 2448.6C11906.4 2448.52 11906.5 2448.4 11906.5 2448.25C11906.6 2448.09 11906.6 2447.91 11906.6 2447.7C11906.6 2447.49 11906.6 2447.3 11906.5 2447.15C11906.5 2447 11906.4 2446.89 11906.3 2446.81C11906.2 2446.73 11906 2446.68 11905.8 2446.68C11905.5 2446.68 11905.3 2446.77 11905.2 2446.95C11905.1 2447.13 11905 2447.38 11905 2447.7ZM11909 2446.31C11909.4 2446.31 11909.6 2446.43 11909.8 2446.66C11910 2446.89 11910.1 2447.24 11910.1 2447.7C11910.1 2448 11910.1 2448.26 11910 2448.47C11909.9 2448.68 11909.8 2448.83 11909.6 2448.94C11909.5 2449.04 11909.3 2449.09 11909 2449.09C11908.9 2449.09 11908.8 2449.08 11908.7 2449.04C11908.6 2449 11908.5 2448.96 11908.4 2448.9C11908.3 2448.84 11908.3 2448.77 11908.2 2448.7H11908.2C11908.2 2448.76 11908.2 2448.83 11908.2 2448.92C11908.2 2449.01 11908.2 2449.08 11908.2 2449.14V2450.24H11907.8V2446.36H11908.1L11908.2 2446.73H11908.2C11908.3 2446.65 11908.3 2446.58 11908.4 2446.52C11908.5 2446.46 11908.6 2446.41 11908.7 2446.37C11908.8 2446.33 11908.9 2446.31 11909 2446.31ZM11909 2446.68C11908.8 2446.68 11908.6 2446.72 11908.5 2446.79C11908.4 2446.86 11908.3 2446.96 11908.3 2447.09C11908.2 2447.23 11908.2 2447.4 11908.2 2447.61V2447.7C11908.2 2447.92 11908.2 2448.11 11908.3 2448.26C11908.3 2448.41 11908.4 2448.53 11908.5 2448.61C11908.6 2448.69 11908.8 2448.73 11909 2448.73C11909.1 2448.73 11909.3 2448.68 11909.4 2448.59C11909.5 2448.5 11909.6 2448.38 11909.6 2448.23C11909.7 2448.07 11909.7 2447.89 11909.7 2447.69C11909.7 2447.39 11909.6 2447.14 11909.5 2446.96C11909.4 2446.78 11909.2 2446.68 11909 2446.68ZM11913.2 2447.7C11913.2 2447.92 11913.1 2448.12 11913.1 2448.29C11913 2448.46 11912.9 2448.61 11912.8 2448.73C11912.7 2448.85 11912.6 2448.94 11912.4 2449C11912.3 2449.06 11912.1 2449.09 11911.9 2449.09C11911.7 2449.09 11911.6 2449.06 11911.4 2449C11911.3 2448.94 11911.2 2448.85 11911 2448.73C11910.9 2448.61 11910.8 2448.46 11910.8 2448.29C11910.7 2448.12 11910.7 2447.92 11910.7 2447.7C11910.7 2447.4 11910.7 2447.15 11910.8 2446.95C11910.9 2446.74 11911.1 2446.59 11911.3 2446.48C11911.5 2446.37 11911.7 2446.31 11911.9 2446.31C11912.2 2446.31 11912.4 2446.37 11912.6 2446.48C11912.8 2446.59 11912.9 2446.74 11913 2446.95C11913.1 2447.15 11913.2 2447.4 11913.2 2447.7ZM11911.1 2447.7C11911.1 2447.91 11911.2 2448.09 11911.2 2448.25C11911.3 2448.4 11911.4 2448.52 11911.5 2448.6C11911.6 2448.69 11911.8 2448.73 11911.9 2448.73C11912.1 2448.73 11912.3 2448.69 11912.4 2448.6C11912.5 2448.52 11912.6 2448.4 11912.6 2448.25C11912.7 2448.09 11912.7 2447.91 11912.7 2447.7C11912.7 2447.49 11912.7 2447.3 11912.6 2447.15C11912.6 2447 11912.5 2446.89 11912.4 2446.81C11912.3 2446.73 11912.1 2446.68 11911.9 2446.68C11911.7 2446.68 11911.5 2446.77 11911.3 2446.95C11911.2 2447.13 11911.1 2447.38 11911.1 2447.7ZM11915.9 2446.36V2448.67H11916.2V2449.97H11915.8V2449.04H11914V2449.97H11913.5V2448.67H11913.8C11913.9 2448.46 11914 2448.23 11914.1 2447.98C11914.2 2447.73 11914.3 2447.46 11914.4 2447.19C11914.4 2446.91 11914.4 2446.64 11914.4 2446.36H11915.9ZM11914.8 2446.71C11914.8 2446.94 11914.8 2447.17 11914.7 2447.41C11914.7 2447.65 11914.6 2447.88 11914.5 2448.1C11914.4 2448.32 11914.3 2448.51 11914.2 2448.67H11915.4V2446.71H11914.8Z" fill="black" fill-opacity="0.4"/>
<rect x="10990" y="2022.5" width="170.032" height="88.5344" rx="5.5" fill="#E0DC5C" fill-opacity="0.69" stroke="black"/>
<path d="M11160 2068H11181M11202.1 2068H11181M11181 2068V2185.5H11980V2348" stroke="black"/>
<path d="M11005 2043.04L11004.1 2040.32H11000L10999.2 2043.04H10996.5L11000.6 2031.57H11003.5L11007.6 2043.04H11005ZM11002.7 2035.64C11002.7 2035.45 11002.6 2035.22 11002.5 2034.95C11002.4 2034.67 11002.4 2034.39 11002.3 2034.1C11002.2 2033.81 11002.1 2033.56 11002.1 2033.35C11002 2033.56 11001.9 2033.83 11001.8 2034.15C11001.8 2034.46 11001.7 2034.76 11001.6 2035.04C11001.5 2035.32 11001.4 2035.52 11001.4 2035.64L11000.6 2038.29H11003.6L11002.7 2035.64ZM11016.7 2043.04H11014.3V2036.1H11012.1C11012 2037.38 11011.8 2038.47 11011.7 2039.38C11011.5 2040.28 11011.3 2041.01 11011.1 2041.57C11010.9 2042.14 11010.6 2042.55 11010.2 2042.82C11009.9 2043.08 11009.5 2043.2 11008.9 2043.2C11008.7 2043.2 11008.4 2043.18 11008.2 2043.14C11008 2043.1 11007.8 2043.03 11007.6 2042.95V2041.04C11007.7 2041.09 11007.8 2041.12 11008 2041.16C11008.1 2041.19 11008.2 2041.2 11008.4 2041.2C11008.5 2041.2 11008.6 2041.14 11008.8 2041.03C11008.9 2040.91 11009 2040.7 11009.2 2040.4C11009.3 2040.1 11009.4 2039.69 11009.5 2039.17C11009.6 2038.65 11009.7 2037.99 11009.8 2037.2C11009.9 2036.4 11010 2035.44 11010.1 2034.31H11016.7V2043.04ZM11022.8 2034.15C11023.6 2034.15 11024.3 2034.3 11024.8 2034.61C11025.4 2034.92 11025.9 2035.37 11026.2 2035.96C11026.5 2036.54 11026.7 2037.26 11026.7 2038.12V2039.27H11021C11021.1 2039.94 11021.3 2040.47 11021.6 2040.85C11022 2041.24 11022.5 2041.43 11023.2 2041.43C11023.8 2041.43 11024.3 2041.37 11024.8 2041.27C11025.2 2041.15 11025.7 2040.97 11026.2 2040.74V2042.58C11025.7 2042.79 11025.3 2042.95 11024.8 2043.04C11024.3 2043.15 11023.8 2043.2 11023.1 2043.2C11022.2 2043.2 11021.5 2043.04 11020.8 2042.72C11020.1 2042.39 11019.6 2041.9 11019.2 2041.24C11018.8 2040.57 11018.6 2039.74 11018.6 2038.74C11018.6 2037.72 11018.8 2036.87 11019.1 2036.2C11019.5 2035.51 11020 2035 11020.6 2034.66C11021.2 2034.32 11021.9 2034.15 11022.8 2034.15ZM11022.8 2035.84C11022.3 2035.84 11021.9 2035.99 11021.6 2036.29C11021.3 2036.59 11021.1 2037.05 11021.1 2037.68H11024.4C11024.4 2037.33 11024.4 2037.02 11024.2 2036.74C11024.1 2036.46 11023.9 2036.24 11023.7 2036.08C11023.4 2035.92 11023.1 2035.84 11022.8 2035.84ZM11034.3 2034.31H11037L11033.5 2038.5L11037.3 2043.04H11034.6L11031 2038.61V2043.04H11028.6V2034.31H11031V2038.55L11034.3 2034.31ZM11041.7 2043.2C11040.9 2043.2 11040.1 2043.05 11039.5 2042.74C11038.9 2042.42 11038.5 2041.93 11038.1 2041.27C11037.8 2040.61 11037.7 2039.76 11037.7 2038.72C11037.7 2037.66 11037.9 2036.79 11038.2 2036.12C11038.6 2035.44 11039.1 2034.95 11039.7 2034.63C11040.4 2034.31 11041.1 2034.15 11042 2034.15C11042.6 2034.15 11043.1 2034.21 11043.5 2034.32C11044 2034.44 11044.3 2034.58 11044.7 2034.74L11044 2036.58C11043.6 2036.43 11043.2 2036.31 11042.9 2036.21C11042.6 2036.12 11042.3 2036.07 11042 2036.07C11041.5 2036.07 11041.2 2036.17 11040.9 2036.37C11040.6 2036.56 11040.4 2036.86 11040.3 2037.25C11040.2 2037.64 11040.1 2038.12 11040.1 2038.71C11040.1 2039.28 11040.2 2039.76 11040.3 2040.15C11040.5 2040.52 11040.7 2040.8 11040.9 2041C11041.2 2041.18 11041.6 2041.27 11042 2041.27C11042.5 2041.27 11042.9 2041.2 11043.3 2041.08C11043.7 2040.94 11044 2040.75 11044.4 2040.52V2042.55C11044 2042.78 11043.7 2042.95 11043.3 2043.04C11042.9 2043.15 11042.4 2043.2 11041.7 2043.2ZM11050 2034.13C11051.2 2034.13 11052.1 2034.39 11052.7 2034.9C11053.3 2035.4 11053.6 2036.17 11053.6 2037.22V2043.04H11052L11051.5 2041.86H11051.4C11051.2 2042.17 11050.9 2042.42 11050.7 2042.63C11050.4 2042.83 11050.1 2042.97 11049.8 2043.06C11049.4 2043.16 11049 2043.2 11048.5 2043.2C11048 2043.2 11047.6 2043.11 11047.2 2042.92C11046.7 2042.71 11046.4 2042.41 11046.2 2042C11046 2041.59 11045.8 2041.06 11045.8 2040.44C11045.8 2039.51 11046.2 2038.82 11046.8 2038.39C11047.5 2037.94 11048.4 2037.69 11049.7 2037.65L11051.3 2037.6V2037.22C11051.3 2036.76 11051.1 2036.42 11050.9 2036.21C11050.7 2036 11050.3 2035.89 11049.9 2035.89C11049.5 2035.89 11049.1 2035.96 11048.7 2036.08C11048.3 2036.2 11047.8 2036.35 11047.4 2036.53L11046.7 2034.92C11047.1 2034.67 11047.6 2034.48 11048.2 2034.34C11048.8 2034.2 11049.4 2034.13 11050 2034.13ZM11050.3 2039.03C11049.6 2039.05 11049 2039.19 11048.7 2039.44C11048.4 2039.7 11048.3 2040.04 11048.3 2040.45C11048.3 2040.81 11048.4 2041.08 11048.6 2041.24C11048.8 2041.38 11049.1 2041.46 11049.4 2041.46C11050 2041.46 11050.4 2041.31 11050.7 2041.01C11051.1 2040.7 11051.3 2040.27 11051.3 2039.72V2039L11050.3 2039.03ZM11058.5 2034.31V2037.67H11061.8V2034.31H11064.2V2043.04H11061.8V2039.44H11058.5V2043.04H11056.1V2034.31H11058.5ZM11074.5 2034.31V2041.3H11075.8V2046.18H11073.7V2043.04H11067.8V2046.18H11065.6V2041.3H11066.4C11066.8 2040.71 11067.1 2040.05 11067.4 2039.3C11067.6 2038.54 11067.8 2037.74 11068 2036.88C11068.2 2036.03 11068.3 2035.17 11068.3 2034.31H11074.5ZM11070.3 2036.1C11070.3 2036.74 11070.2 2037.36 11070 2037.97C11069.9 2038.57 11069.7 2039.14 11069.5 2039.7C11069.4 2040.25 11069.1 2040.79 11068.9 2041.3H11072.1V2036.1H11070.3ZM11082.2 2034.15C11083.1 2034.15 11083.9 2034.53 11084.5 2035.3C11085.1 2036.06 11085.5 2037.18 11085.5 2038.66C11085.5 2039.65 11085.3 2040.49 11085 2041.17C11084.7 2041.84 11084.3 2042.35 11083.8 2042.69C11083.3 2043.03 11082.8 2043.2 11082.1 2043.2C11081.7 2043.2 11081.3 2043.15 11081 2043.04C11080.7 2042.94 11080.4 2042.8 11080.2 2042.63C11080 2042.46 11079.8 2042.28 11079.7 2042.08H11079.5C11079.6 2042.29 11079.6 2042.5 11079.6 2042.72C11079.7 2042.94 11079.7 2043.15 11079.7 2043.36V2046.88H11077.3V2034.31H11079.2L11079.6 2035.44H11079.7C11079.8 2035.21 11080 2035 11080.3 2034.8C11080.5 2034.6 11080.7 2034.44 11081.1 2034.32C11081.4 2034.21 11081.7 2034.15 11082.2 2034.15ZM11081.4 2036.05C11081 2036.05 11080.6 2036.14 11080.4 2036.31C11080.1 2036.48 11080 2036.74 11079.9 2037.09C11079.7 2037.43 11079.7 2037.86 11079.7 2038.39V2038.64C11079.7 2039.21 11079.7 2039.69 11079.8 2040.08C11079.9 2040.47 11080.1 2040.76 11080.4 2040.96C11080.6 2041.17 11081 2041.27 11081.4 2041.27C11081.8 2041.27 11082.1 2041.17 11082.3 2040.96C11082.5 2040.76 11082.7 2040.46 11082.8 2040.07C11083 2039.67 11083 2039.19 11083 2038.63C11083 2037.77 11082.9 2037.13 11082.6 2036.71C11082.4 2036.27 11082 2036.05 11081.4 2036.05ZM11091 2034.13C11092.2 2034.13 11093.1 2034.39 11093.7 2034.9C11094.3 2035.4 11094.6 2036.17 11094.6 2037.22V2043.04H11093L11092.5 2041.86H11092.4C11092.2 2042.17 11091.9 2042.42 11091.7 2042.63C11091.4 2042.83 11091.1 2042.97 11090.8 2043.06C11090.4 2043.16 11090 2043.2 11089.5 2043.2C11089 2043.2 11088.6 2043.11 11088.2 2042.92C11087.7 2042.71 11087.4 2042.41 11087.2 2042C11087 2041.59 11086.8 2041.06 11086.8 2040.44C11086.8 2039.51 11087.2 2038.82 11087.8 2038.39C11088.5 2037.94 11089.4 2037.69 11090.7 2037.65L11092.3 2037.6V2037.22C11092.3 2036.76 11092.1 2036.42 11091.9 2036.21C11091.7 2036 11091.3 2035.89 11090.9 2035.89C11090.5 2035.89 11090.1 2035.96 11089.7 2036.08C11089.3 2036.2 11088.8 2036.35 11088.4 2036.53L11087.7 2034.92C11088.1 2034.67 11088.6 2034.48 11089.2 2034.34C11089.8 2034.2 11090.4 2034.13 11091 2034.13ZM11091.3 2039.03C11090.6 2039.05 11090 2039.19 11089.7 2039.44C11089.4 2039.7 11089.3 2040.04 11089.3 2040.45C11089.3 2040.81 11089.4 2041.08 11089.6 2041.24C11089.8 2041.38 11090.1 2041.46 11090.4 2041.46C11091 2041.46 11091.4 2041.31 11091.7 2041.01C11092.1 2040.7 11092.3 2040.27 11092.3 2039.72V2039L11091.3 2039.03ZM11007.3 2062.04H11004.5L11000.4 2056.25V2062.04H10998V2050.62H11000.4V2056.16L11004.5 2050.62H11007.1L11002.9 2056.11L11007.3 2062.04ZM11012.1 2053.13C11013.3 2053.13 11014.2 2053.39 11014.8 2053.9C11015.4 2054.4 11015.8 2055.17 11015.8 2056.22V2062.04H11014.1L11013.6 2060.86H11013.6C11013.3 2061.17 11013.1 2061.42 11012.8 2061.63C11012.5 2061.83 11012.2 2061.97 11011.9 2062.06C11011.6 2062.16 11011.2 2062.2 11010.7 2062.2C11010.2 2062.2 11009.7 2062.11 11009.3 2061.92C11008.9 2061.71 11008.6 2061.41 11008.3 2061C11008.1 2060.59 11008 2060.06 11008 2059.44C11008 2058.51 11008.3 2057.82 11008.9 2057.39C11009.6 2056.94 11010.6 2056.69 11011.9 2056.65L11013.4 2056.6V2056.22C11013.4 2055.76 11013.3 2055.42 11013 2055.21C11012.8 2055 11012.5 2054.89 11012 2054.89C11011.6 2054.89 11011.2 2054.96 11010.8 2055.08C11010.4 2055.2 11010 2055.35 11009.6 2055.53L11008.8 2053.92C11009.3 2053.67 11009.8 2053.48 11010.3 2053.34C11010.9 2053.2 11011.5 2053.13 11012.1 2053.13ZM11012.5 2058.03C11011.7 2058.05 11011.2 2058.19 11010.9 2058.44C11010.6 2058.7 11010.4 2059.04 11010.4 2059.45C11010.4 2059.81 11010.5 2060.08 11010.7 2060.24C11010.9 2060.38 11011.2 2060.46 11011.6 2060.46C11012.1 2060.46 11012.5 2060.31 11012.9 2060.01C11013.2 2059.7 11013.4 2059.27 11013.4 2058.72V2058L11012.5 2058.03ZM11023.1 2053.15C11024 2053.15 11024.8 2053.53 11025.4 2054.3C11026.1 2055.06 11026.4 2056.18 11026.4 2057.66C11026.4 2058.65 11026.2 2059.49 11025.9 2060.17C11025.6 2060.84 11025.2 2061.35 11024.7 2061.69C11024.2 2062.03 11023.7 2062.2 11023 2062.2C11022.6 2062.2 11022.2 2062.15 11021.9 2062.04C11021.6 2061.94 11021.4 2061.8 11021.1 2061.63C11020.9 2061.46 11020.7 2061.28 11020.6 2061.08H11020.5C11020.5 2061.29 11020.5 2061.5 11020.5 2061.72C11020.6 2061.94 11020.6 2062.15 11020.6 2062.36V2065.88H11018.2V2053.31H11020.1L11020.5 2054.44H11020.6C11020.7 2054.21 11020.9 2054 11021.2 2053.8C11021.4 2053.6 11021.6 2053.44 11022 2053.32C11022.3 2053.21 11022.6 2053.15 11023.1 2053.15ZM11022.3 2055.05C11021.9 2055.05 11021.5 2055.14 11021.3 2055.31C11021.1 2055.48 11020.9 2055.74 11020.8 2056.09C11020.7 2056.43 11020.6 2056.86 11020.6 2057.39V2057.64C11020.6 2058.21 11020.6 2058.69 11020.7 2059.08C11020.8 2059.47 11021 2059.76 11021.3 2059.96C11021.5 2060.17 11021.9 2060.27 11022.3 2060.27C11022.7 2060.27 11023 2060.17 11023.2 2059.96C11023.5 2059.76 11023.6 2059.46 11023.7 2059.07C11023.9 2058.67 11023.9 2058.19 11023.9 2057.63C11023.9 2056.77 11023.8 2056.13 11023.5 2055.71C11023.3 2055.27 11022.9 2055.05 11022.3 2055.05ZM11036.3 2053.31V2062.04H11033.9V2055.1H11030.7V2062.04H11028.3V2053.31H11036.3ZM11046.7 2057.66C11046.7 2058.38 11046.6 2059.03 11046.4 2059.6C11046.2 2060.16 11045.9 2060.64 11045.5 2061.04C11045.2 2061.42 11044.7 2061.71 11044.2 2061.92C11043.7 2062.11 11043.1 2062.2 11042.4 2062.2C11041.8 2062.2 11041.3 2062.11 11040.7 2061.92C11040.2 2061.71 11039.8 2061.42 11039.4 2061.04C11039 2060.64 11038.7 2060.16 11038.5 2059.6C11038.3 2059.03 11038.2 2058.38 11038.2 2057.66C11038.2 2056.69 11038.4 2055.87 11038.7 2055.21C11039.1 2054.54 11039.6 2054.03 11040.2 2053.68C11040.9 2053.32 11041.6 2053.15 11042.5 2053.15C11043.3 2053.15 11044 2053.32 11044.7 2053.68C11045.3 2054.03 11045.8 2054.54 11046.2 2055.21C11046.5 2055.87 11046.7 2056.69 11046.7 2057.66ZM11040.7 2057.66C11040.7 2058.24 11040.7 2058.72 11040.8 2059.12C11041 2059.5 11041.2 2059.79 11041.4 2060C11041.7 2060.19 11042 2060.28 11042.5 2060.28C11042.9 2060.28 11043.2 2060.19 11043.5 2060C11043.8 2059.79 11044 2059.5 11044.1 2059.12C11044.2 2058.72 11044.3 2058.24 11044.3 2057.66C11044.3 2057.08 11044.2 2056.6 11044.1 2056.22C11044 2055.84 11043.8 2055.55 11043.5 2055.36C11043.2 2055.16 11042.9 2055.07 11042.5 2055.07C11041.8 2055.07 11041.4 2055.29 11041.1 2055.72C11040.8 2056.15 11040.7 2056.8 11040.7 2057.66ZM11056.4 2055.6C11056.4 2056.06 11056.3 2056.46 11056 2056.8C11055.7 2057.13 11055.2 2057.34 11054.7 2057.44V2057.5C11055.3 2057.57 11055.8 2057.78 11056.1 2058.12C11056.5 2058.46 11056.7 2058.9 11056.7 2059.44C11056.7 2059.81 11056.6 2060.16 11056.5 2060.48C11056.3 2060.8 11056.1 2061.07 11055.8 2061.31C11055.5 2061.54 11055.1 2061.72 11054.6 2061.85C11054.1 2061.98 11053.5 2062.04 11052.8 2062.04H11048.7V2053.31H11052.8C11053.5 2053.31 11054.1 2053.38 11054.6 2053.53C11055.2 2053.67 11055.6 2053.9 11055.9 2054.24C11056.2 2054.57 11056.4 2055.02 11056.4 2055.6ZM11054.2 2059.31C11054.2 2058.97 11054.1 2058.72 11053.8 2058.57C11053.6 2058.41 11053.2 2058.33 11052.6 2058.33H11051V2060.4H11052.7C11053.1 2060.4 11053.5 2060.32 11053.8 2060.16C11054.1 2059.98 11054.2 2059.7 11054.2 2059.31ZM11054 2055.79C11054 2055.51 11053.9 2055.31 11053.7 2055.18C11053.5 2055.05 11053.1 2054.99 11052.7 2054.99H11051V2056.72H11052.5C11053 2056.72 11053.3 2056.65 11053.6 2056.51C11053.9 2056.36 11054 2056.12 11054 2055.79ZM11061.1 2053.31V2056.67H11064.4V2053.31H11066.8V2062.04H11064.4V2058.44H11061.1V2062.04H11058.7V2053.31H11061.1ZM11072.9 2053.13C11074.1 2053.13 11075 2053.39 11075.6 2053.9C11076.2 2054.4 11076.5 2055.17 11076.5 2056.22V2062.04H11074.9L11074.4 2060.86H11074.3C11074.1 2061.17 11073.8 2061.42 11073.6 2061.63C11073.3 2061.83 11073 2061.97 11072.7 2062.06C11072.4 2062.16 11071.9 2062.2 11071.5 2062.2C11070.9 2062.2 11070.5 2062.11 11070.1 2061.92C11069.7 2061.71 11069.3 2061.41 11069.1 2061C11068.9 2060.59 11068.7 2060.06 11068.7 2059.44C11068.7 2058.51 11069.1 2057.82 11069.7 2057.39C11070.4 2056.94 11071.3 2056.69 11072.7 2056.65L11074.2 2056.6V2056.22C11074.2 2055.76 11074 2055.42 11073.8 2055.21C11073.6 2055 11073.2 2054.89 11072.8 2054.89C11072.4 2054.89 11072 2054.96 11071.6 2055.08C11071.2 2055.2 11070.8 2055.35 11070.3 2055.53L11069.6 2053.92C11070 2053.67 11070.5 2053.48 11071.1 2053.34C11071.7 2053.2 11072.3 2053.13 11072.9 2053.13ZM11073.2 2058.03C11072.5 2058.05 11071.9 2058.19 11071.6 2058.44C11071.3 2058.7 11071.2 2059.04 11071.2 2059.45C11071.2 2059.81 11071.3 2060.08 11071.5 2060.24C11071.7 2060.38 11072 2060.46 11072.3 2060.46C11072.9 2060.46 11073.3 2060.31 11073.6 2060.01C11074 2059.7 11074.2 2059.27 11074.2 2058.72V2058L11073.2 2058.03ZM11007.3 2081.04H11004.5L11000.4 2075.25V2081.04H10998V2069.62H11000.4V2075.16L11004.5 2069.62H11007.1L11002.9 2075.11L11007.3 2081.04ZM11007.3 2072.31H11009.9L11011.5 2077.22C11011.6 2077.38 11011.6 2077.54 11011.7 2077.7C11011.7 2077.86 11011.8 2078.02 11011.8 2078.2C11011.8 2078.37 11011.8 2078.55 11011.8 2078.74H11011.9C11011.9 2078.46 11012 2078.2 11012 2077.96C11012.1 2077.7 11012.1 2077.45 11012.2 2077.22L11013.8 2072.31H11016.4L11012.7 2082.16C11012.5 2082.76 11012.2 2083.26 11011.8 2083.67C11011.5 2084.07 11011.1 2084.38 11010.6 2084.58C11010.1 2084.78 11009.6 2084.88 11009.1 2084.88C11008.8 2084.88 11008.6 2084.87 11008.3 2084.84C11008.2 2084.81 11008 2084.79 11007.8 2084.76V2082.87C11008 2082.89 11008.1 2082.91 11008.3 2082.93C11008.4 2082.95 11008.6 2082.96 11008.8 2082.96C11009.1 2082.96 11009.4 2082.89 11009.6 2082.76C11009.9 2082.62 11010.1 2082.42 11010.2 2082.18C11010.4 2081.94 11010.5 2081.69 11010.6 2081.41L11010.8 2080.98L11007.3 2072.31ZM11023.4 2072.31H11026L11022.5 2076.5L11026.3 2081.04H11023.6L11020 2076.61V2081.04H11017.7V2072.31H11020V2076.55L11023.4 2072.31ZM11031.1 2072.13C11032.3 2072.13 11033.2 2072.39 11033.8 2072.9C11034.5 2073.4 11034.8 2074.17 11034.8 2075.22V2081.04H11033.1L11032.6 2079.86H11032.6C11032.3 2080.17 11032.1 2080.42 11031.8 2080.63C11031.6 2080.83 11031.3 2080.97 11030.9 2081.06C11030.6 2081.16 11030.2 2081.2 11029.7 2081.2C11029.2 2081.2 11028.7 2081.11 11028.3 2080.92C11027.9 2080.71 11027.6 2080.41 11027.3 2080C11027.1 2079.59 11027 2079.06 11027 2078.44C11027 2077.51 11027.3 2076.82 11028 2076.39C11028.6 2075.94 11029.6 2075.69 11030.9 2075.65L11032.4 2075.6V2075.22C11032.4 2074.76 11032.3 2074.42 11032 2074.21C11031.8 2074 11031.5 2073.89 11031 2073.89C11030.6 2073.89 11030.2 2073.96 11029.8 2074.08C11029.4 2074.2 11029 2074.35 11028.6 2074.53L11027.8 2072.92C11028.3 2072.67 11028.8 2072.48 11029.3 2072.34C11029.9 2072.2 11030.5 2072.13 11031.1 2072.13ZM11031.5 2077.03C11030.7 2077.05 11030.2 2077.19 11029.9 2077.44C11029.6 2077.7 11029.4 2078.04 11029.4 2078.45C11029.4 2078.81 11029.5 2079.08 11029.7 2079.24C11030 2079.38 11030.2 2079.46 11030.6 2079.46C11031.1 2079.46 11031.5 2079.31 11031.9 2079.01C11032.2 2078.7 11032.4 2078.27 11032.4 2077.72V2077L11031.5 2077.03ZM11042.1 2072.15C11043.1 2072.15 11043.9 2072.53 11044.5 2073.3C11045.1 2074.06 11045.4 2075.18 11045.4 2076.66C11045.4 2077.65 11045.2 2078.49 11044.9 2079.17C11044.7 2079.84 11044.3 2080.35 11043.8 2080.69C11043.3 2081.03 11042.7 2081.2 11042 2081.2C11041.6 2081.2 11041.2 2081.15 11040.9 2081.04C11040.6 2080.94 11040.4 2080.8 11040.2 2080.63C11039.9 2080.46 11039.8 2080.28 11039.6 2080.08H11039.5C11039.5 2080.29 11039.5 2080.5 11039.6 2080.72C11039.6 2080.94 11039.6 2081.15 11039.6 2081.36V2084.88H11037.2V2072.31H11039.1L11039.5 2073.44H11039.6C11039.8 2073.21 11039.9 2073 11040.2 2072.8C11040.4 2072.6 11040.7 2072.44 11041 2072.32C11041.3 2072.21 11041.7 2072.15 11042.1 2072.15ZM11041.3 2074.05C11040.9 2074.05 11040.6 2074.14 11040.3 2074.31C11040.1 2074.48 11039.9 2074.74 11039.8 2075.09C11039.7 2075.43 11039.6 2075.86 11039.6 2076.39V2076.64C11039.6 2077.21 11039.7 2077.69 11039.8 2078.08C11039.9 2078.47 11040 2078.76 11040.3 2078.96C11040.6 2079.17 11040.9 2079.27 11041.3 2079.27C11041.7 2079.27 11042 2079.17 11042.2 2078.96C11042.5 2078.76 11042.6 2078.46 11042.8 2078.07C11042.9 2077.67 11042.9 2077.19 11042.9 2076.63C11042.9 2075.77 11042.8 2075.13 11042.5 2074.71C11042.3 2074.27 11041.9 2074.05 11041.3 2074.05ZM11050.9 2072.15C11051.7 2072.15 11052.4 2072.3 11053 2072.61C11053.6 2072.92 11054.1 2073.37 11054.4 2073.96C11054.7 2074.54 11054.9 2075.26 11054.9 2076.12V2077.27H11049.2C11049.2 2077.94 11049.4 2078.47 11049.8 2078.85C11050.2 2079.24 11050.7 2079.43 11051.4 2079.43C11052 2079.43 11052.5 2079.37 11052.9 2079.27C11053.4 2079.15 11053.9 2078.97 11054.4 2078.74V2080.58C11053.9 2080.79 11053.5 2080.95 11053 2081.04C11052.5 2081.15 11052 2081.2 11051.3 2081.2C11050.4 2081.2 11049.6 2081.04 11049 2080.72C11048.3 2080.39 11047.8 2079.9 11047.4 2079.24C11047 2078.57 11046.8 2077.74 11046.8 2076.74C11046.8 2075.72 11047 2074.87 11047.3 2074.2C11047.7 2073.51 11048.2 2073 11048.8 2072.66C11049.4 2072.32 11050.1 2072.15 11050.9 2072.15ZM11051 2073.84C11050.5 2073.84 11050.1 2073.99 11049.8 2074.29C11049.5 2074.59 11049.3 2075.05 11049.3 2075.68H11052.6C11052.6 2075.33 11052.6 2075.02 11052.4 2074.74C11052.3 2074.46 11052.1 2074.24 11051.9 2074.08C11051.6 2073.92 11051.3 2073.84 11051 2073.84ZM11062.5 2072.31H11065.1L11061.7 2076.5L11065.4 2081.04H11062.7L11059.2 2076.61V2081.04H11056.8V2072.31H11059.2V2076.55L11062.5 2072.31ZM11070.3 2072.13C11071.5 2072.13 11072.4 2072.39 11073 2072.9C11073.6 2073.4 11073.9 2074.17 11073.9 2075.22V2081.04H11072.2L11071.8 2079.86H11071.7C11071.5 2080.17 11071.2 2080.42 11071 2080.63C11070.7 2080.83 11070.4 2080.97 11070.1 2081.06C11069.7 2081.16 11069.3 2081.2 11068.8 2081.2C11068.3 2081.2 11067.8 2081.11 11067.4 2080.92C11067 2080.71 11066.7 2080.41 11066.5 2080C11066.2 2079.59 11066.1 2079.06 11066.1 2078.44C11066.1 2077.51 11066.4 2076.82 11067.1 2076.39C11067.7 2075.94 11068.7 2075.69 11070 2075.65L11071.5 2075.6V2075.22C11071.5 2074.76 11071.4 2074.42 11071.2 2074.21C11070.9 2074 11070.6 2073.89 11070.2 2073.89C11069.8 2073.89 11069.3 2073.96 11068.9 2074.08C11068.5 2074.2 11068.1 2074.35 11067.7 2074.53L11066.9 2072.92C11067.4 2072.67 11067.9 2072.48 11068.5 2072.34C11069.1 2072.2 11069.7 2072.13 11070.3 2072.13ZM11070.6 2077.03C11069.8 2077.05 11069.3 2077.19 11069 2077.44C11068.7 2077.7 11068.6 2078.04 11068.6 2078.45C11068.6 2078.81 11068.7 2079.08 11068.9 2079.24C11069.1 2079.38 11069.4 2079.46 11069.7 2079.46C11070.2 2079.46 11070.7 2079.31 11071 2079.01C11071.4 2078.7 11071.5 2078.27 11071.5 2077.72V2077L11070.6 2077.03Z" fill="#381B00"/>
<rect x="10805.5" y="2022.5" width="170.032" height="88.5344" rx="5.5" fill="#E0DC5C" fill-opacity="0.69" stroke="black"/>
<path d="M10891 2021V1904H11076.5M11383 1904H11076.5M11076.5 2021V1904" stroke="black"/>
<path d="M10820 2031.46V2032.87C10821.3 2032.9 10822.3 2033.12 10823 2033.52C10823.7 2033.92 10824.3 2034.43 10824.6 2035.06C10824.9 2035.69 10825.1 2036.38 10825.1 2037.12C10825.1 2037.6 10825 2038.09 10824.8 2038.6C10824.7 2039.1 10824.4 2039.56 10824 2039.99C10823.6 2040.4 10823.1 2040.74 10822.4 2041.01C10821.8 2041.28 10821 2041.42 10820 2041.44V2043.2H10817.8V2041.44C10816.9 2041.42 10816 2041.28 10815.4 2041.01C10814.7 2040.74 10814.2 2040.4 10813.8 2039.97C10813.4 2039.54 10813.2 2039.09 10813 2038.6C10812.8 2038.09 10812.8 2037.6 10812.8 2037.12C10812.8 2036.57 10812.9 2036.04 10813 2035.54C10813.2 2035.04 10813.5 2034.59 10813.9 2034.2C10814.3 2033.8 10814.8 2033.49 10815.5 2033.25C10816.1 2033.02 10816.9 2032.89 10817.8 2032.87V2031.46H10820ZM10817.8 2034.76C10817.1 2034.79 10816.6 2034.91 10816.2 2035.12C10815.8 2035.33 10815.5 2035.6 10815.3 2035.94C10815.1 2036.28 10815 2036.67 10815 2037.11C10815 2037.59 10815.1 2038.01 10815.3 2038.37C10815.5 2038.72 10815.8 2039.01 10816.2 2039.22C10816.7 2039.42 10817.2 2039.54 10817.8 2039.57V2034.76ZM10820 2039.57C10820.7 2039.54 10821.2 2039.42 10821.6 2039.22C10822 2039.01 10822.3 2038.72 10822.5 2038.37C10822.7 2038.01 10822.8 2037.59 10822.8 2037.11C10822.8 2036.67 10822.7 2036.28 10822.5 2035.94C10822.4 2035.6 10822.1 2035.33 10821.7 2035.12C10821.3 2034.91 10820.7 2034.79 10820 2034.76V2039.57ZM10830.7 2034.15C10831.5 2034.15 10832.2 2034.3 10832.7 2034.61C10833.3 2034.92 10833.8 2035.37 10834.1 2035.96C10834.4 2036.54 10834.6 2037.26 10834.6 2038.12V2039.27H10828.9C10829 2039.94 10829.2 2040.47 10829.5 2040.85C10829.9 2041.24 10830.5 2041.43 10831.1 2041.43C10831.7 2041.43 10832.2 2041.37 10832.7 2041.27C10833.1 2041.15 10833.6 2040.97 10834.1 2040.74V2042.58C10833.7 2042.79 10833.2 2042.95 10832.7 2043.04C10832.3 2043.15 10831.7 2043.2 10831 2043.2C10830.1 2043.2 10829.4 2043.04 10828.7 2042.72C10828 2042.39 10827.5 2041.9 10827.1 2041.24C10826.7 2040.57 10826.5 2039.74 10826.5 2038.74C10826.5 2037.72 10826.7 2036.87 10827 2036.2C10827.4 2035.51 10827.9 2035 10828.5 2034.66C10829.1 2034.32 10829.8 2034.15 10830.7 2034.15ZM10830.7 2035.84C10830.2 2035.84 10829.8 2035.99 10829.5 2036.29C10829.2 2036.59 10829 2037.05 10829 2037.68H10832.3C10832.3 2037.33 10832.3 2037.02 10832.1 2036.74C10832 2036.46 10831.8 2036.24 10831.6 2036.08C10831.4 2035.92 10831 2035.84 10830.7 2035.84ZM10844.4 2034.31V2041.3H10845.6V2046.18H10843.5V2043.04H10837.6V2046.18H10835.5V2041.3H10836.2C10836.6 2040.71 10836.9 2040.05 10837.2 2039.3C10837.5 2038.54 10837.7 2037.74 10837.8 2036.88C10838 2036.03 10838.1 2035.17 10838.2 2034.31H10844.4ZM10840.2 2036.1C10840.1 2036.74 10840 2037.36 10839.9 2037.97C10839.7 2038.57 10839.6 2039.14 10839.4 2039.7C10839.2 2040.25 10839 2040.79 10838.7 2041.3H10842V2036.1H10840.2ZM10855.1 2038.66C10855.1 2039.38 10855 2040.03 10854.8 2040.6C10854.6 2041.16 10854.3 2041.64 10853.9 2042.04C10853.6 2042.42 10853.1 2042.71 10852.6 2042.92C10852.1 2043.11 10851.5 2043.2 10850.8 2043.2C10850.2 2043.2 10849.6 2043.11 10849.1 2042.92C10848.6 2042.71 10848.2 2042.42 10847.8 2042.04C10847.4 2041.64 10847.1 2041.16 10846.9 2040.6C10846.7 2040.03 10846.6 2039.38 10846.6 2038.66C10846.6 2037.69 10846.8 2036.87 10847.1 2036.21C10847.5 2035.54 10848 2035.03 10848.6 2034.68C10849.2 2034.32 10850 2034.15 10850.9 2034.15C10851.7 2034.15 10852.4 2034.32 10853 2034.68C10853.7 2035.03 10854.2 2035.54 10854.5 2036.21C10854.9 2036.87 10855.1 2037.69 10855.1 2038.66ZM10849 2038.66C10849 2039.24 10849.1 2039.72 10849.2 2040.12C10849.3 2040.5 10849.5 2040.79 10849.8 2041C10850.1 2041.19 10850.4 2041.28 10850.8 2041.28C10851.3 2041.28 10851.6 2041.19 10851.9 2041C10852.1 2040.79 10852.3 2040.5 10852.4 2040.12C10852.6 2039.72 10852.6 2039.24 10852.6 2038.66C10852.6 2038.08 10852.6 2037.6 10852.4 2037.22C10852.3 2036.84 10852.1 2036.55 10851.9 2036.36C10851.6 2036.16 10851.3 2036.07 10850.8 2036.07C10850.2 2036.07 10849.7 2036.29 10849.5 2036.72C10849.2 2037.15 10849 2037.8 10849 2038.66ZM10861.9 2034.15C10862.9 2034.15 10863.7 2034.53 10864.3 2035.3C10864.9 2036.06 10865.2 2037.18 10865.2 2038.66C10865.2 2039.65 10865.1 2040.49 10864.8 2041.17C10864.5 2041.84 10864.1 2042.35 10863.6 2042.69C10863.1 2043.03 10862.5 2043.2 10861.8 2043.2C10861.4 2043.2 10861.1 2043.15 10860.8 2043.04C10860.5 2042.94 10860.2 2042.8 10860 2042.63C10859.8 2042.46 10859.6 2042.28 10859.4 2042.08H10859.3C10859.3 2042.29 10859.4 2042.5 10859.4 2042.72C10859.4 2042.94 10859.4 2043.15 10859.4 2043.36V2046.88H10857V2034.31H10859L10859.3 2035.44H10859.4C10859.6 2035.21 10859.8 2035 10860 2034.8C10860.2 2034.6 10860.5 2034.44 10860.8 2034.32C10861.1 2034.21 10861.5 2034.15 10861.9 2034.15ZM10861.1 2036.05C10860.7 2036.05 10860.4 2036.14 10860.1 2036.31C10859.9 2036.48 10859.7 2036.74 10859.6 2037.09C10859.5 2037.43 10859.4 2037.86 10859.4 2038.39V2038.64C10859.4 2039.21 10859.5 2039.69 10859.6 2040.08C10859.7 2040.47 10859.9 2040.76 10860.1 2040.96C10860.4 2041.17 10860.7 2041.27 10861.2 2041.27C10861.5 2041.27 10861.8 2041.17 10862.1 2040.96C10862.3 2040.76 10862.5 2040.46 10862.6 2040.07C10862.7 2039.67 10862.8 2039.19 10862.8 2038.63C10862.8 2037.77 10862.6 2037.13 10862.4 2036.71C10862.1 2036.27 10861.7 2036.05 10861.1 2036.05ZM10879.7 2043.04H10877L10872.8 2037.25V2043.04H10870.4V2031.62H10872.8V2037.16L10876.9 2031.62H10879.5L10875.3 2037.11L10879.7 2043.04ZM10884.5 2034.13C10885.7 2034.13 10886.6 2034.39 10887.2 2034.9C10887.9 2035.4 10888.2 2036.17 10888.2 2037.22V2043.04H10886.5L10886.1 2041.86H10886C10885.7 2042.17 10885.5 2042.42 10885.2 2042.63C10885 2042.83 10884.7 2042.97 10884.3 2043.06C10884 2043.16 10883.6 2043.2 10883.1 2043.2C10882.6 2043.2 10882.1 2043.11 10881.7 2042.92C10881.3 2042.71 10881 2042.41 10880.7 2042C10880.5 2041.59 10880.4 2041.06 10880.4 2040.44C10880.4 2039.51 10880.7 2038.82 10881.4 2038.39C10882 2037.94 10883 2037.69 10884.3 2037.65L10885.8 2037.6V2037.22C10885.8 2036.76 10885.7 2036.42 10885.4 2036.21C10885.2 2036 10884.9 2035.89 10884.5 2035.89C10884 2035.89 10883.6 2035.96 10883.2 2036.08C10882.8 2036.2 10882.4 2036.35 10882 2036.53L10881.2 2034.92C10881.7 2034.67 10882.2 2034.48 10882.8 2034.34C10883.3 2034.2 10883.9 2034.13 10884.5 2034.13ZM10884.9 2039.03C10884.1 2039.05 10883.6 2039.19 10883.3 2039.44C10883 2039.7 10882.8 2040.04 10882.8 2040.45C10882.8 2040.81 10882.9 2041.08 10883.2 2041.24C10883.4 2041.38 10883.6 2041.46 10884 2041.46C10884.5 2041.46 10884.9 2041.31 10885.3 2041.01C10885.6 2040.7 10885.8 2040.27 10885.8 2039.72V2039L10884.9 2039.03ZM10895.5 2034.15C10896.5 2034.15 10897.3 2034.53 10897.9 2035.3C10898.5 2036.06 10898.8 2037.18 10898.8 2038.66C10898.8 2039.65 10898.6 2040.49 10898.4 2041.17C10898.1 2041.84 10897.7 2042.35 10897.2 2042.69C10896.7 2043.03 10896.1 2043.2 10895.4 2043.2C10895 2043.2 10894.6 2043.15 10894.3 2043.04C10894 2042.94 10893.8 2042.8 10893.6 2042.63C10893.4 2042.46 10893.2 2042.28 10893 2042.08H10892.9C10892.9 2042.29 10893 2042.5 10893 2042.72C10893 2042.94 10893 2043.15 10893 2043.36V2046.88H10890.6V2034.31H10892.6L10892.9 2035.44H10893C10893.2 2035.21 10893.4 2035 10893.6 2034.8C10893.8 2034.6 10894.1 2034.44 10894.4 2034.32C10894.7 2034.21 10895.1 2034.15 10895.5 2034.15ZM10894.7 2036.05C10894.3 2036.05 10894 2036.14 10893.7 2036.31C10893.5 2036.48 10893.3 2036.74 10893.2 2037.09C10893.1 2037.43 10893 2037.86 10893 2038.39V2038.64C10893 2039.21 10893.1 2039.69 10893.2 2040.08C10893.3 2040.47 10893.5 2040.76 10893.7 2040.96C10894 2041.17 10894.3 2041.27 10894.8 2041.27C10895.1 2041.27 10895.4 2041.17 10895.6 2040.96C10895.9 2040.76 10896.1 2040.46 10896.2 2040.07C10896.3 2039.67 10896.4 2039.19 10896.4 2038.63C10896.4 2037.77 10896.2 2037.13 10896 2036.71C10895.7 2036.27 10895.3 2036.05 10894.7 2036.05ZM10908.7 2034.31V2043.04H10906.3V2036.1H10903.1V2043.04H10900.7V2034.31H10908.7ZM10919.1 2038.66C10919.1 2039.38 10919 2040.03 10918.8 2040.6C10918.6 2041.16 10918.3 2041.64 10918 2042.04C10917.6 2042.42 10917.2 2042.71 10916.6 2042.92C10916.1 2043.11 10915.5 2043.2 10914.9 2043.2C10914.3 2043.2 10913.7 2043.11 10913.2 2042.92C10912.7 2042.71 10912.2 2042.42 10911.8 2042.04C10911.5 2041.64 10911.2 2041.16 10911 2040.6C10910.8 2040.03 10910.7 2039.38 10910.7 2038.66C10910.7 2037.69 10910.8 2036.87 10911.2 2036.21C10911.5 2035.54 10912 2035.03 10912.6 2034.68C10913.3 2034.32 10914 2034.15 10914.9 2034.15C10915.7 2034.15 10916.5 2034.32 10917.1 2034.68C10917.7 2035.03 10918.2 2035.54 10918.6 2036.21C10918.9 2036.87 10919.1 2037.69 10919.1 2038.66ZM10913.1 2038.66C10913.1 2039.24 10913.1 2039.72 10913.3 2040.12C10913.4 2040.5 10913.6 2040.79 10913.9 2041C10914.1 2041.19 10914.5 2041.28 10914.9 2041.28C10915.3 2041.28 10915.7 2041.19 10915.9 2041C10916.2 2040.79 10916.4 2040.5 10916.5 2040.12C10916.6 2039.72 10916.7 2039.24 10916.7 2038.66C10916.7 2038.08 10916.6 2037.6 10916.5 2037.22C10916.4 2036.84 10916.2 2036.55 10915.9 2036.36C10915.7 2036.16 10915.3 2036.07 10914.9 2036.07C10914.3 2036.07 10913.8 2036.29 10913.5 2036.72C10913.2 2037.15 10913.1 2037.8 10913.1 2038.66ZM10928.8 2036.6C10928.8 2037.06 10928.7 2037.46 10928.4 2037.8C10928.1 2038.13 10927.7 2038.34 10927.1 2038.44V2038.5C10927.7 2038.57 10928.2 2038.78 10928.5 2039.12C10928.9 2039.46 10929.1 2039.9 10929.1 2040.44C10929.1 2040.81 10929 2041.16 10928.9 2041.48C10928.7 2041.8 10928.5 2042.07 10928.2 2042.31C10927.9 2042.54 10927.5 2042.72 10927 2042.85C10926.5 2042.98 10925.9 2043.04 10925.3 2043.04H10921.1V2034.31H10925.3C10925.9 2034.31 10926.5 2034.38 10927.1 2034.53C10927.6 2034.67 10928 2034.9 10928.4 2035.24C10928.7 2035.57 10928.8 2036.02 10928.8 2036.6ZM10926.6 2040.31C10926.6 2039.97 10926.5 2039.72 10926.2 2039.57C10926 2039.41 10925.6 2039.33 10925 2039.33H10923.5V2041.4H10925.1C10925.5 2041.4 10925.9 2041.32 10926.2 2041.16C10926.5 2040.98 10926.6 2040.7 10926.6 2040.31ZM10926.4 2036.79C10926.4 2036.51 10926.3 2036.31 10926.1 2036.18C10925.9 2036.05 10925.6 2035.99 10925.2 2035.99H10923.5V2037.72H10924.9C10925.4 2037.72 10925.8 2037.65 10926 2037.51C10926.3 2037.36 10926.4 2037.12 10926.4 2036.79ZM10933.5 2037.76C10933.5 2037.94 10933.4 2038.17 10933.4 2038.44C10933.4 2038.7 10933.4 2038.97 10933.4 2039.25C10933.4 2039.53 10933.4 2039.77 10933.3 2039.99C10933.3 2040.2 10933.3 2040.35 10933.3 2040.44L10937.3 2034.31H10940.2V2043.04H10937.9V2039.56C10937.9 2039.27 10937.9 2038.95 10937.9 2038.61C10937.9 2038.26 10937.9 2037.93 10938 2037.64C10938 2037.33 10938 2037.09 10938 2036.93L10934 2043.04H10931.2V2034.31H10933.5V2037.76ZM10944.8 2037.51C10944.8 2037.88 10944.9 2038.16 10945 2038.36C10945.2 2038.55 10945.5 2038.64 10945.8 2038.64C10946.3 2038.64 10946.7 2038.6 10947.1 2038.5C10947.5 2038.39 10947.9 2038.25 10948.3 2038.08V2034.31H10950.7V2043.04H10948.3V2039.57C10947.9 2039.77 10947.5 2039.96 10947 2040.13C10946.5 2040.29 10946 2040.37 10945.4 2040.37C10944.5 2040.37 10943.7 2040.14 10943.2 2039.67C10942.7 2039.2 10942.4 2038.49 10942.4 2037.56V2034.31H10944.8V2037.51ZM10822.8 2062.04H10820L10815.9 2056.25V2062.04H10813.5V2050.62H10815.9V2056.16L10820 2050.62H10822.6L10818.4 2056.11L10822.8 2062.04ZM10822.8 2053.31H10825.4L10827.1 2058.22C10827.1 2058.38 10827.1 2058.54 10827.2 2058.7C10827.2 2058.86 10827.3 2059.02 10827.3 2059.2C10827.3 2059.37 10827.3 2059.55 10827.3 2059.74H10827.4C10827.4 2059.46 10827.5 2059.2 10827.5 2058.96C10827.6 2058.7 10827.6 2058.45 10827.7 2058.22L10829.3 2053.31H10831.9L10828.2 2063.16C10828 2063.76 10827.7 2064.26 10827.3 2064.67C10827 2065.07 10826.6 2065.38 10826.1 2065.58C10825.6 2065.78 10825.1 2065.88 10824.6 2065.88C10824.3 2065.88 10824.1 2065.87 10823.9 2065.84C10823.7 2065.81 10823.5 2065.79 10823.3 2065.76V2063.87C10823.5 2063.89 10823.6 2063.91 10823.8 2063.93C10823.9 2063.95 10824.1 2063.96 10824.3 2063.96C10824.6 2063.96 10824.9 2063.89 10825.1 2063.76C10825.4 2063.62 10825.6 2063.42 10825.7 2063.18C10825.9 2062.94 10826 2062.69 10826.1 2062.41L10826.3 2061.98L10822.8 2053.31ZM10838.9 2053.31H10841.5L10838 2057.5L10841.8 2062.04H10839.1L10835.5 2057.61V2062.04H10833.2V2053.31H10835.5V2057.55L10838.9 2053.31ZM10846.6 2053.13C10847.8 2053.13 10848.7 2053.39 10849.3 2053.9C10850 2054.4 10850.3 2055.17 10850.3 2056.22V2062.04H10848.6L10848.1 2060.86H10848.1C10847.8 2061.17 10847.6 2061.42 10847.3 2061.63C10847.1 2061.83 10846.8 2061.97 10846.4 2062.06C10846.1 2062.16 10845.7 2062.2 10845.2 2062.2C10844.7 2062.2 10844.2 2062.11 10843.8 2061.92C10843.4 2061.71 10843.1 2061.41 10842.8 2061C10842.6 2060.59 10842.5 2060.06 10842.5 2059.44C10842.5 2058.51 10842.8 2057.82 10843.5 2057.39C10844.1 2056.94 10845.1 2056.69 10846.4 2056.65L10847.9 2056.6V2056.22C10847.9 2055.76 10847.8 2055.42 10847.5 2055.21C10847.3 2055 10847 2054.89 10846.5 2054.89C10846.1 2054.89 10845.7 2054.96 10845.3 2055.08C10844.9 2055.2 10844.5 2055.35 10844.1 2055.53L10843.3 2053.92C10843.8 2053.67 10844.3 2053.48 10844.9 2053.34C10845.4 2053.2 10846 2053.13 10846.6 2053.13ZM10847 2058.03C10846.2 2058.05 10845.7 2058.19 10845.4 2058.44C10845.1 2058.7 10844.9 2059.04 10844.9 2059.45C10844.9 2059.81 10845 2060.08 10845.3 2060.24C10845.5 2060.38 10845.7 2060.46 10846.1 2060.46C10846.6 2060.46 10847 2060.31 10847.4 2060.01C10847.7 2059.7 10847.9 2059.27 10847.9 2058.72V2058L10847 2058.03ZM10857.6 2053.15C10858.6 2053.15 10859.4 2053.53 10860 2054.3C10860.6 2055.06 10860.9 2056.18 10860.9 2057.66C10860.9 2058.65 10860.7 2059.49 10860.4 2060.17C10860.2 2060.84 10859.8 2061.35 10859.3 2061.69C10858.8 2062.03 10858.2 2062.2 10857.5 2062.2C10857.1 2062.2 10856.7 2062.15 10856.4 2062.04C10856.1 2061.94 10855.9 2061.8 10855.7 2061.63C10855.4 2061.46 10855.3 2061.28 10855.1 2061.08H10855C10855 2061.29 10855 2061.5 10855.1 2061.72C10855.1 2061.94 10855.1 2062.15 10855.1 2062.36V2065.88H10852.7V2053.31H10854.7L10855 2054.44H10855.1C10855.3 2054.21 10855.5 2054 10855.7 2053.8C10855.9 2053.6 10856.2 2053.44 10856.5 2053.32C10856.8 2053.21 10857.2 2053.15 10857.6 2053.15ZM10856.8 2055.05C10856.4 2055.05 10856.1 2055.14 10855.8 2055.31C10855.6 2055.48 10855.4 2055.74 10855.3 2056.09C10855.2 2056.43 10855.1 2056.86 10855.1 2057.39V2057.64C10855.1 2058.21 10855.2 2058.69 10855.3 2059.08C10855.4 2059.47 10855.5 2059.76 10855.8 2059.96C10856.1 2060.17 10856.4 2060.27 10856.8 2060.27C10857.2 2060.27 10857.5 2060.17 10857.7 2059.96C10858 2059.76 10858.2 2059.46 10858.3 2059.07C10858.4 2058.67 10858.4 2058.19 10858.4 2057.63C10858.4 2056.77 10858.3 2056.13 10858 2055.71C10857.8 2055.27 10857.4 2055.05 10856.8 2055.05ZM10866.4 2053.15C10867.3 2053.15 10867.9 2053.3 10868.5 2053.61C10869.1 2053.92 10869.6 2054.37 10869.9 2054.96C10870.2 2055.54 10870.4 2056.26 10870.4 2057.12V2058.27H10864.7C10864.8 2058.94 10864.9 2059.47 10865.3 2059.85C10865.7 2060.24 10866.2 2060.43 10866.9 2060.43C10867.5 2060.43 10868 2060.37 10868.4 2060.27C10868.9 2060.15 10869.4 2059.97 10869.9 2059.74V2061.58C10869.4 2061.79 10869 2061.95 10868.5 2062.04C10868 2062.15 10867.5 2062.2 10866.8 2062.2C10865.9 2062.2 10865.1 2062.04 10864.5 2061.72C10863.8 2061.39 10863.3 2060.9 10862.9 2060.24C10862.5 2059.57 10862.3 2058.74 10862.3 2057.74C10862.3 2056.72 10862.5 2055.87 10862.8 2055.2C10863.2 2054.51 10863.7 2054 10864.3 2053.66C10864.9 2053.32 10865.6 2053.15 10866.4 2053.15ZM10866.5 2054.84C10866 2054.84 10865.6 2054.99 10865.3 2055.29C10865 2055.59 10864.8 2056.05 10864.8 2056.68H10868.1C10868.1 2056.33 10868.1 2056.02 10867.9 2055.74C10867.8 2055.46 10867.6 2055.24 10867.4 2055.08C10867.1 2054.92 10866.8 2054.84 10866.5 2054.84ZM10878 2053.31H10880.6L10877.2 2057.5L10880.9 2062.04H10878.2L10874.7 2057.61V2062.04H10872.3V2053.31H10874.7V2057.55L10878 2053.31ZM10885.8 2053.13C10887 2053.13 10887.9 2053.39 10888.5 2053.9C10889.1 2054.4 10889.4 2055.17 10889.4 2056.22V2062.04H10887.8L10887.3 2060.86H10887.2C10887 2061.17 10886.7 2061.42 10886.5 2061.63C10886.2 2061.83 10885.9 2061.97 10885.6 2062.06C10885.2 2062.16 10884.8 2062.2 10884.3 2062.2C10883.8 2062.2 10883.4 2062.11 10882.9 2061.92C10882.5 2061.71 10882.2 2061.41 10882 2061C10881.7 2060.59 10881.6 2060.06 10881.6 2059.44C10881.6 2058.51 10881.9 2057.82 10882.6 2057.39C10883.3 2056.94 10884.2 2056.69 10885.5 2056.65L10887 2056.6V2056.22C10887 2055.76 10886.9 2055.42 10886.7 2055.21C10886.4 2055 10886.1 2054.89 10885.7 2054.89C10885.3 2054.89 10884.8 2054.96 10884.4 2055.08C10884 2055.2 10883.6 2055.35 10883.2 2055.53L10882.4 2053.92C10882.9 2053.67 10883.4 2053.48 10884 2053.34C10884.6 2053.2 10885.2 2053.13 10885.8 2053.13ZM10886.1 2058.03C10885.4 2058.05 10884.8 2058.19 10884.5 2058.44C10884.2 2058.7 10884.1 2059.04 10884.1 2059.45C10884.1 2059.81 10884.2 2060.08 10884.4 2060.24C10884.6 2060.38 10884.9 2060.46 10885.2 2060.46C10885.7 2060.46 10886.2 2060.31 10886.5 2060.01C10886.9 2059.7 10887 2059.27 10887 2058.72V2058L10886.1 2058.03Z" fill="#381B00"/>
<path d="M3780.21 77.6523C3780.21 78.8242 3779.95 79.931 3779.43 80.9727C3778.13 83.3164 3776.08 84.4883 3773.28 84.4883C3772.17 84.4883 3771.13 84.2279 3770.15 83.707C3767.68 82.4701 3766.44 80.4518 3766.44 77.6523C3766.44 76.5456 3766.7 75.4714 3767.22 74.4297C3768.52 71.9557 3770.54 70.7188 3773.28 70.7188C3774.38 70.7188 3775.46 70.9792 3776.5 71.5C3778.97 72.8672 3780.21 74.918 3780.21 77.6523Z" fill="#F5F5F5"/>
<path d="M16.2109 1602.65C16.2109 1603.82 15.9505 1604.93 15.4297 1605.97C14.1276 1608.32 12.0768 1609.49 9.27734 1609.49C8.17057 1609.49 7.12891 1609.23 6.15234 1608.71C3.67839 1607.47 2.44141 1605.45 2.44141 1602.65C2.44141 1601.55 2.70182 1600.47 3.22266 1599.43C4.52474 1596.96 6.54297 1595.72 9.27734 1595.72C10.3841 1595.72 11.4583 1595.98 12.5 1596.5C14.974 1597.87 16.2109 1599.92 16.2109 1602.65Z" fill="#F5F5F5"/>
</g>
</svg>
